<?xml version="1.0" encoding="utf-8"?>
<!-- Generator: Adobe Illustrator 21.0.0, SVG Export Plug-In . SVG Version: 6.00 Build 0)  -->
<svg version="1.1" id="Layer_1" xmlns="http://www.w3.org/2000/svg" xmlns:xlink="http://www.w3.org/1999/xlink" x="0px" y="0px"
	 viewBox="0 0 141 51.9" style="enable-background:new 0 0 141 51.9;" xml:space="preserve">
<style type="text/css">
	.st0{clip-path:url(#SVGID_12_);}
	.st1{fill:#FFFFFF;}
	.st2{opacity:0.9;}
	.st3{clip-path:url(#SVGID_13_);fill:#640C36;}
	.st4{clip-path:url(#SVGID_13_);}
	.st5{clip-path:url(#SVGID_14_);fill:#FFFFFF;}
	.st6{opacity:0.8;}
	.st7{clip-path:url(#SVGID_15_);fill:#640C36;}
	.st8{clip-path:url(#SVGID_15_);}
	.st9{clip-path:url(#SVGID_16_);fill:#FFFFFF;}
	.st10{opacity:0.6;}
	.st11{clip-path:url(#SVGID_17_);fill:#640C36;}
	.st12{clip-path:url(#SVGID_17_);}
	.st13{clip-path:url(#SVGID_18_);fill:#FFFFFF;}
	.st14{opacity:0.4;}
	.st15{clip-path:url(#SVGID_19_);fill:#640C36;}
	.st16{clip-path:url(#SVGID_19_);}
	.st17{clip-path:url(#SVGID_20_);fill:#FFFFFF;}
	.st18{opacity:0.2;}
	.st19{clip-path:url(#SVGID_21_);fill:#640C36;}
	.st20{clip-path:url(#SVGID_21_);}
	.st21{clip-path:url(#SVGID_22_);fill:#FFFFFF;}
</style>
<title>flogo</title>
<g>
	<defs>
		<rect id="SVGID_11_" x="-112.5" y="-14.2" width="593.2" height="799.2"/>
	</defs>
	<clipPath id="SVGID_12_">
		<use xlink:href="#SVGID_11_"  style="overflow:visible;"/>
	</clipPath>
	<g class="st0">
		<path class="st1" d="M3.1,21.4C4.5,23.3,7.4,23,7.4,23v-8.1H12c1.4-0.4,2.4-1.6,2.5-3h-7L7.3,7.8h6.5c1-0.6,1.6-1.7,1.6-2.9H3.1"
			/>
		<path class="st1" d="M42.7,12.8c-0.8-2-2.8-3.4-5-3.4c-0.6-0.1-3.3,0.4-4.6,0.4c-0.8,0-1.6-0.2-2.4-0.4v12c1,1.1,2.5,1.7,4,1.5
			V12.7c0,0,3.5-0.6,3.8,0.8l-0.1,7.9c1.2,1.1,2.7,1.6,4.3,1.6"/>
		<path class="st1" d="M53.1,12.7c0,0-3-0.3-3.9,0.9s-0.4,3.6-0.3,4.9s2,1.5,2,1.5c2.6,0.7,4.4-1.9,4.4-1.9s1,2.1,0.4,3
			c-1.6,1.7-3.9,2.4-6.2,2c-1.9-0.3-3.5-1.5-4.4-3.1c0,0-0.6-5.3,0-7.2s2.5-3.3,5.9-3.3"/>
		<path class="st1" d="M48.1,10.1c0.5-0.7,3.4-0.8,4.9-0.4c1.3,0.4,2.3,1.2,2.9,2.4c0.3,1-0.8,3.2-0.8,3.2c-0.6-2-3.3-2.6-3.3-2.6
			S49,12.4,48.9,14"/>
		<path class="st1" d="M77.2,23.3c0,0-3.2-0.6-4.2-1.9V9.4c1.2,0.3,2.4,0.4,3.7,0.4c1-0.2,2-0.4,3-0.4c1.5,0,2.8,0.9,3.2,2.3
			c0,0-0.3,2.7-1.7,3.1c0-0.9-0.5-1.7-1.3-2c-0.9-0.4-1.9-0.4-2.8-0.1L77.2,23.3z"/>
		<path class="st1" d="M87.1,10.3c2.7-1.9,5.3,0.6,5.3,0.6V3.7c0,0,3.6-0.1,4.1,2.1v17.6c0,0-0.5-0.7-2.9-0.6c-1,0.4-2,0.7-3,0.9
			c-1.1,0.1-4.9-1.3-6-3.6v-6.8C84.5,13.2,84.4,12.1,87.1,10.3 M88.2,18.5c0.5,0.7,1.3,1.1,2.1,1.3c1.2,0.1,1.5-0.4,1.5-0.4v-5.8
			c-0.4-0.6-1.1-1-1.8-1.1c-1.1,0-1.8,1.3-1.8,1.3L88.2,18.5z"/>
		<path class="st1" d="M19.4,13.2c0,0,0.2-1.1,2.2-1.1s2.3,1.1,2.3,1.1h4.1c0,0-0.4-3.9-6.4-3.9c0,0-5-0.3-6.4,3.3v6.8h4.1"/>
		<path class="st1" d="M23.9,19.2c0,0-0.2,1.1-2.2,1.1s-2.3-1.1-2.3-1.1h-4.1c0,0,0.4,3.9,6.4,3.9c0,0,5,0.3,6.4-3.3v-6.8h-4"/>
		<path class="st1" d="M61.9,13.3c0,0,0.2-1.1,2.2-1.1c2,0,2.3,1.1,2.3,1.1h4.1c0,0-0.4-3.9-6.4-3.9c0,0-5-0.3-6.4,3.3v6.8h4"/>
		<path class="st1" d="M66.4,19.4c0,0-0.2,1.1-2.2,1.1c-2,0-2.3-1.1-2.3-1.1h-4.1c0,0,0.4,4,6.4,4c0,0,5,0.3,6.4-3.3v-6.8h-4.1"/>
		<path class="st1" d="M47.2,38.8c-1.1,0.6-2.4,0.5-3.3-0.4v4.5c0,0-2.3,0.1-2.5-1.3V30.6c0,0,0.3,0.5,1.8,0.4
			c0.6-0.3,1.2-0.4,1.9-0.6c1.5,0.2,2.9,1,3.8,2.3v4.2C48.8,36.9,48.8,37.6,47.2,38.8 M46.5,33.6c-0.3-0.4-0.8-0.7-1.3-0.8
			c-0.7-0.1-0.9,0.2-0.9,0.2v3.6c0.2,0.4,0.7,0.6,1.1,0.7c0.7,0,1.1-0.8,1.1-0.8L46.5,33.6z"/>
		<path class="st1" d="M32,37c0.5,1.3,1.8,2.1,3.1,2.1c0.4,0.1,2-0.3,2.9-0.2c0.5,0,1,0.1,1.5,0.3v-7.5c-0.6-0.7-1.6-1-2.5-0.9v6.4
			c0,0-2.2,0.4-2.4-0.5v-4.9c-0.7-0.7-1.7-1-2.7-1"/>
		<path class="st1" d="M17,39.3c0,0-2-0.4-2.6-1.2v-7.5c0.8,0.2,1.5,0.3,2.3,0.2c0.6-0.2,1.2-0.3,1.9-0.3c0.9,0,1.7,0.6,2,1.5
			c0,0-0.2,1.7-1.1,2c0-0.6-0.3-1-0.8-1.2c-0.5-0.2-1.2-0.3-1.7-0.1L17,39.3z"/>
		<path class="st1" d="M6.1,30.8c0,0,0.2-1,1.6-1c1.5,0,1.7,0.9,1.7,0.9h3c0,0-0.3-3.4-4.7-3.4c0,0-3.7-0.2-4.7,2.9v6.1L6,36.8
			c0-0.4,0-0.9,0-1.3L6.1,30.8z"/>
		<path class="st1" d="M6.1,36.1c0,0,0.2,1,1.6,1c1.5,0,1.7-0.9,1.7-0.9h3c0,0-0.3,3.4-4.7,3.4c0,0-3.7,0.2-4.7-2.9v-6l3.1-0.4
			c0,0.5,0,0.9,0,1.4L6.1,36.1z"/>
		<path class="st1" d="M12.6,36.1c-0.5,0.5-1.2,0.7-1.8,0.7c0-0.4,0-0.8,0-1.2V34H7.9c-0.4-0.2-0.7-0.7-0.7-1.1h5.4"/>
		<rect x="9.5" y="34" class="st1" width="3" height="2.1"/>
		<path class="st1" d="M24.8,32.9c0,0,0.1-0.7,1.3-0.7s1.5,0.7,1.5,0.7h2.6c0,0-0.2-2.5-4-2.5c0,0-3.1-0.2-4,2.1v4.2h2.6"/>
		<path class="st1" d="M27.6,36.7c0,0-0.1,0.7-1.3,0.7s-1.5-0.7-1.5-0.7h-2.6c0,0,0.2,2.5,4,2.5c0,0,3.1,0.2,4-2.1v-4.2h-2.6"/>
		<path class="st1" d="M65.7,38.1c-1.7,0.2-3.7,0.4-5.2,1c-2.3,0.9-4.1,2.8-6.3,4.2c8.7-3.9,20.1-5,29.5-2c4.4,1.4,8.6,3.2,12.7,5.2
			c4.3,2,8.6,3.7,13.8,4c6,0.4,11.4-0.6,16.5-1.8c4.4-1.1,8.7-2.2,12.7-3.3c0.5-0.1,1.2-0.1,1.5-0.7c-6.6,1.4-13.2,3.7-20,4.7
			c-7.3,1-14.8,0.2-21.1-2.5c-8.8-3.8-17-9-28.6-9C69.3,37.7,67.5,37.8,65.7,38.1"/>
		<g class="st2">
			<g>
				<defs>
					<rect id="SVGID_5_" x="60.1" y="35.5" width="69.8" height="13.1"/>
				</defs>
				<clipPath id="SVGID_13_">
					<use xlink:href="#SVGID_5_"  style="overflow:visible;"/>
				</clipPath>
				<path class="st3" d="M67.7,35.7c-3.2,0.4-5.3,1.4-7.6,3c9-2.9,19.1-1.4,26.9,1.5c4.3,1.6,8.3,4,12.6,5.7
					c7.2,2.8,15.8,2.7,23.3,1.2c2.5-0.5,5-1.1,7-2c-11.1,3.5-23,3.6-32.2-0.8c-4.3-2.1-8.7-4.5-13.3-6.2c-3.7-1.3-8.6-2.5-13.4-2.5
					C69.9,35.5,68.8,35.6,67.7,35.7"/>
				<g class="st4">
					<defs>
						<path id="SVGID_7_" d="M67.7,35.7c-3.2,0.4-5.3,1.4-7.6,3c9-2.9,19.1-1.4,26.9,1.5c4.3,1.6,8.3,4,12.6,5.7
							c7.2,2.8,15.8,2.7,23.3,1.2c2.5-0.5,5-1.1,7-2c-11.1,3.5-23,3.6-32.2-0.8c-4.3-2.1-8.7-4.5-13.3-6.2
							c-3.7-1.3-8.6-2.5-13.4-2.5C69.9,35.5,68.8,35.6,67.7,35.7"/>
					</defs>
					<clipPath id="SVGID_14_">
						<use xlink:href="#SVGID_7_"  style="overflow:visible;"/>
					</clipPath>
					<rect x="60.1" y="35.5" class="st5" width="69.8" height="13.1"/>
				</g>
			</g>
		</g>
	</g>
</g>
<g class="st6">
	<g>
		<defs>
			<rect id="SVGID_1_" x="64.4" y="33.5" width="56.3" height="13.9"/>
		</defs>
		<clipPath id="SVGID_15_">
			<use xlink:href="#SVGID_1_"  style="overflow:visible;"/>
		</clipPath>
		<path class="st7" d="M64.4,35.3c11.2-1.9,19.9,1.5,27.8,5.2c3.8,1.7,7.8,3.7,12.4,4.7c4.6,1,9.7,1.1,15.3,0c0.2-0.2,0.8-0.3,0-0.3
			c-11.1,2.5-21.4-1.4-28.6-5.8c-2.9-1.1-6.3-2.8-10-3.8c-2.9-0.8-6.5-1.6-9.9-1.6C68.7,33.6,66.2,34,64.4,35.3"/>
		<g class="st8">
			<defs>
				<path id="SVGID_2_" d="M64.4,35.3c11.2-1.9,19.9,1.5,27.8,5.2c3.8,1.7,7.8,3.7,12.4,4.7c4.6,1,9.7,1.1,15.3,0
					c0.2-0.2,0.8-0.3,0-0.3c-11.1,2.5-21.4-1.4-28.6-5.8c-2.9-1.1-6.3-2.8-10-3.8c-2.9-0.8-6.5-1.6-9.9-1.6
					C68.7,33.6,66.2,34,64.4,35.3"/>
			</defs>
			<use xlink:href="#SVGID_2_"  style="overflow:visible;fill:#FFFFFF;"/>
			<clipPath id="SVGID_16_">
				<use xlink:href="#SVGID_2_"  style="overflow:visible;"/>
			</clipPath>
			<rect x="64.4" y="33.5" class="st9" width="56.3" height="13.8"/>
		</g>
	</g>
</g>
<g class="st10">
	<g>
		<defs>
			<rect id="SVGID_3_" x="69.5" y="32.1" width="44.4" height="13.1"/>
		</defs>
		<clipPath id="SVGID_17_">
			<use xlink:href="#SVGID_3_"  style="overflow:visible;"/>
		</clipPath>
		<path class="st11" d="M69.5,32.9c8.8,0.2,15.1,2.5,21.5,5.5c6.5,3,14.1,6.9,22.9,5.3c-9,0.9-15.3-2.4-21.8-5.7
			c-2.8-1.4-5.7-2.6-8.8-3.7c-3-1-6.4-2.2-9.7-2.2C72.1,32.1,70.8,32.4,69.5,32.9"/>
		<g class="st12">
			<defs>
				<path id="SVGID_4_" d="M69.5,32.9c8.8,0.2,15.2,2.5,21.5,5.5c6.5,3,14.1,6.9,22.9,5.3c-9,0.9-15.3-2.4-21.8-5.7
					c-2.8-1.4-5.7-2.6-8.8-3.7c-3-1-6.4-2.2-9.7-2.2C72.1,32.1,70.8,32.4,69.5,32.9"/>
			</defs>
			<use xlink:href="#SVGID_4_"  style="overflow:visible;fill:#FFFFFF;"/>
			<clipPath id="SVGID_18_">
				<use xlink:href="#SVGID_4_"  style="overflow:visible;"/>
			</clipPath>
			<rect x="69.5" y="32.1" class="st13" width="44.4" height="13.1"/>
		</g>
	</g>
</g>
<g class="st14">
	<g>
		<defs>
			<rect id="SVGID_6_" x="74.7" y="31.1" width="34.8" height="11.4"/>
		</defs>
		<clipPath id="SVGID_19_">
			<use xlink:href="#SVGID_6_"  style="overflow:visible;"/>
		</clipPath>
		<path class="st15" d="M77,31.2c-0.6,0.1-1.8,0-2.2,0.5c6.8,0.7,12.2,3.1,17.5,5.5c5.3,2.4,10.6,5.3,17.3,5c-6.7-0.2-11.2-2.7-16-5
			c-2.3-1.3-5-2.4-7.8-3.5c-2.7-1.1-5.7-2.5-8.7-2.5H77L77,31.2z"/>
		<g class="st16">
			<defs>
				<path id="SVGID_8_" d="M77,31.2c-0.6,0.1-1.8,0-2.2,0.5c6.8,0.7,12.2,3.1,17.5,5.5c5.3,2.4,10.6,5.3,17.3,5
					c-6.7-0.2-11.2-2.7-16-5c-2.3-1.3-5-2.4-7.8-3.5c-2.7-1.1-5.7-2.5-8.7-2.5H77L77,31.2z"/>
			</defs>
			<use xlink:href="#SVGID_8_"  style="overflow:visible;fill:#FFFFFF;"/>
			<clipPath id="SVGID_20_">
				<use xlink:href="#SVGID_8_"  style="overflow:visible;"/>
			</clipPath>
			<rect x="74.7" y="31.1" class="st17" width="34.8" height="11.4"/>
		</g>
	</g>
</g>
<g class="st18">
	<g>
		<defs>
			<rect id="SVGID_9_" x="79" y="30.3" width="27.8" height="9.8"/>
		</defs>
		<clipPath id="SVGID_21_">
			<use xlink:href="#SVGID_9_"  style="overflow:visible;"/>
		</clipPath>
		<path class="st19" d="M79.8,30.5c4.7,1.4,9.1,2.9,13.5,5c4.2,2,8.5,4.5,13.6,4.5c-7.1-1.1-12.7-4.6-18.5-7.2
			c-2.1-0.9-4.2-2.1-6.1-2.5c-0.3,0-1.2-0.1-1.9-0.1C79.5,30.3,79,30.3,79.8,30.5"/>
		<g class="st20">
			<defs>
				<path id="SVGID_10_" d="M79.7,30.5c4.7,1.4,9.1,2.9,13.5,5c4.2,2,8.5,4.5,13.6,4.5c-7.1-1.1-12.7-4.6-18.5-7.2
					c-2.1-0.9-4.2-2.1-6.1-2.5c-0.3,0-1.2-0.1-1.9-0.1C79.5,30.3,79,30.3,79.7,30.5"/>
			</defs>
			<use xlink:href="#SVGID_10_"  style="overflow:visible;fill:#FFFFFF;"/>
			<clipPath id="SVGID_22_">
				<use xlink:href="#SVGID_10_"  style="overflow:visible;"/>
			</clipPath>
			<rect x="79" y="30.3" class="st21" width="27.8" height="9.8"/>
		</g>
	</g>
</g>
<path class="st1" d="M119,45.2c-5.8,0.1-11.4-2.2-15.4-6.4c-0.2-0.2-0.6-0.3-0.4-0.8c0,0-0.1-0.1-0.2-0.2
	c-3.7-4.4-5.3-10.1-4.4-15.8c0-0.2,0-0.5-0.1-0.7c0-0.1,0-0.2,0-0.3c0.7-3.1,2-6.1,4-8.6c0.5-0.5,1-1,1.6-1.5c1.6-1.6,3.5-3,5.5-4
	c1-0.5,2-1,3-1.4c0.6-0.2,1.2-0.3,1.8-0.4c0.7-0.2,1.3-0.3,2-0.4c4.3-0.3,8.6,0.7,12.3,2.9c1.4,0.9,2.8,2,4,3.2
	c2.6,2.4,4.4,5.5,5.2,9c0.5,2,0.7,4,0.6,6c-0.2,3.7-1.4,7.3-3.4,10.5c-2.9,4.8-7.4,7.2-12.7,8.5C121.4,45,120.2,45.1,119,45.2
	 M121.8,23.8L121.8,23.8l-0.2-0.5h-0.5c-0.2-0.6-0.3-0.7-0.9-0.5c-0.5,0.3-1.1,0.4-1.6,0.3c-0.1,0-0.2,0-0.3,0
	c-0.5,0.4-0.8,0.1-1.1-0.2c-0.3-0.3-0.5-0.7-0.8-1c-0.1-0.2-0.3-0.4-0.4-0.6c-0.3-0.4-0.4-0.9-0.3-1.4c0.1-0.3,0.2-0.6,0.1-0.9
	c-0.2-0.4-0.1-0.8,0.2-1.1c0.4-0.5,0.9-1,1.3-1.5c0.1-0.1,0.2-0.2,0.3-0.4c0-0.4,0.3-0.8,0.6-0.9c0.1-0.1,0.2-0.2,0.3-0.3
	c-0.1-0.1-0.2-0.2-0.2-0.2c-0.5,0-0.4-0.3-0.4-0.7c0.1-0.3,0.1-0.5,0.1-0.8c0-0.3,0.2-0.4,0.5-0.4c0.2,0,0.3,0.1,0.5,0.1
	c0.3,0.1,0.6,0,0.6-0.4c0-0.1-0.2-0.3-0.3-0.4l-0.3-0.3c0.1-0.1,0.2-0.2,0.3-0.3c0.2-0.1,0.3-0.1,0.5-0.2c-1,0-1,0-0.9-0.4l-0.5,0.2
	c-0.3,0.1-0.5,0-0.4-0.3c0-0.4,0.3-0.7,0.7-0.8c0,0,0,0,0,0c0.1,0,0.1-0.2,0.2-0.2s0.3-0.3,0.4-0.3c0.1,0,0.2,0.2,0.3,0.4
	c0.1,0.1,0.1,0.2,0.2,0.3l0.7,0.8l0.8-0.6l0.1-0.6c-0.5-0.1-0.6-0.2-0.6-0.7c0-0.2,0.2-0.4,0.4-0.5s0.5-0.3,0.7-0.5
	c0.7-0.8,1.9-0.9,2.7-0.2c0,0,0,0,0.1,0c0.2,0.2,0.5,0.4,0.8,0.5c0.4,0.2,0.8,0.2,1.2,0.4s0.6,0.1,0.9,0.1c0.3,0,0.7,0.2,0.8,0.1
	c0.3-0.3,0.5-0.1,0.7,0.1c0.3,0.4,0.7,0.2,1.1,0.2c-3.2-2.4-7.2-3.8-11.2-3.8c-0.3,0-0.7,0.1-1,0.3c0,0-0.1,0.1-0.1,0.2l-0.8,1
	c0.1,0.1,0.1,0.3-0.2,0.5c-0.3,0.2-0.5,0.3-0.8,0.4c-0.5,0.1-0.9,0.3-1.3,0.5c-0.7,0.3-1.2,0.8-1.7,1.4c-0.1,0.1-0.3,0.2-0.3,0.2
	c-0.2-0.1-0.7-0.3-0.7-0.5c0-0.4,0.1-0.8,0.3-1.1c0.3-0.3,0.4-0.7,0.3-1.1l-1.3-0.1l-1.1,0.9l0.9,1L110.5,9
	c-0.1,0.2-0.2,0.4-0.3,0.5c-0.1,0.4-0.2,0.8-0.2,1.3c0,0,0.1,0.1,0.2,0.1c0.4,0.1,0.2,0.3,0.1,0.5c-0.1,0.2-0.2,0.3-0.2,0.4
	c0.2,0.2,0.3,0.3,0.3,0.3s-0.1,0.4-0.2,0.4c-0.4,0.1-0.7,0.1-1.1,0.2v-0.1l0.4-0.5c-0.5,0.1-0.9,0.3-1.1,0.9h0.5
	c-0.1,0.3-0.3,0.5-1.2,1l-0.3-0.3l-1.4,1.2c-0.4,0.2-0.7,0.5-0.9,0.9c-0.2,0.4-0.5,0.7-0.9,0.9c-0.5,0.2-0.8,0.7-0.8,1.2h0.5
	c-0.1,0.5,0.6,1,0.1,1.5c0.3,0.1,0.6,0.1,0.9,0.2c0.3,0,0.6-0.1,0.9,0c0.2,0,0.5,0.1,0.7,0.3c0.1,0.3,0.1,0.6,0.1,0.9
	c0.1,0.1,0.2,0.2,0.3,0.3c0,0-0.1,0.2-0.1,0.2c-0.1,0-0.3-0.1-0.4-0.1l-0.1,0.9c0.2,0.4,0.6,0.7,1.1,0.7c0.4,0,0.7,0.2,0.9,0.6
	c0.2,0.4,0.4,0.8,0.5,1.2l0.1-0.1c0.2,0,0.5,0,0.6,0.1c0.3,0.4,0.7,0.3,1,0.4c0.4,0.1,0.5,0.1,0.7,0.2c0.8,0.3,1.1,1.1,0.4,1.7
	c-0.3,0.3-0.5,0.7-0.5,1.1c0.1,0.7,0,1.5-0.3,2.2c-0.1,0.2-0.3,0.4-0.6,0.4c-0.3,0.1-0.6,0.2-0.8,0.5c-0.1,0.4-0.1,0.7-0.1,1.1
	c-0.1,0.5-0.7,1-1,1c0.2,0.6,0.2,0.6-0.3,0.9c0,0-0.1,0.1-0.1,0.1c-0.1,0.5-0.4,1,0.1,1.5c0.1,0.1,0.1,0.2,0.1,0.3
	c-0.1,0.3,0,0.7,0.4,0.9c0.3,0.2,0.6,0.5,0.9,0.7l-0.1,0.2c-0.4,0-0.7-0.1-1.1-0.2c-0.3-0.2-0.6-0.5-0.8-0.8c-0.5-0.6-1.2-1-1.2-1.9
	c0,0,0-0.1-0.1-0.1c-0.3-0.5-0.6-1-0.8-1.5c-0.2-0.7-0.4-1.3-0.5-2c-0.1-0.4-0.2-0.8-0.2-1.2c0.1-0.7-0.3-1.5-1-1.8
	c-0.2-0.1-0.4-0.2-0.5-0.4c-0.6-0.9-1.4-1.7-1.3-2.9l0,0c-0.2-0.3,0-0.5,0.1-0.8c0.4-0.5,0.7-1.1,0.4-1.7c-0.1,0.1-0.3,0.2-0.4,0.2
	c-0.4-0.1-0.8-0.4-1-0.8c-0.2-0.5-0.8-0.5-1.2-0.8c0,0-0.3,0.2-0.4,0.4c-0.1,0.1-0.1,0.2-0.1,0.3c-0.3,1.9-0.3,3.7,0,5.6
	c0.5,3.9,2.2,7.6,4.9,10.5c0.3,0.3,0.7,0.6,1.1,0.9c0.7,0.4,1.4,0.7,2.1,1c0.1,0,0.3-0.1,0.3-0.1c0.3,0.2,0.6,0.4,0.9,0.6
	c0.7,0.3,1.3,0.4,1.9,0.6c0-0.3,0-0.5,0-0.8c0.1-0.2,0.4-0.3,0.4-0.6h0.3c0.1,0,0.2,0,0.3,0c0.3-0.2,0.4,0.1,0.5,0.2l-0.5,0.5
	c0.3,0.3,0.7,0.6,0.9,0.9c0.1,0.2,0.3,0.4,0.4,0.7l-0.7,0.2l-0.2,0.1c0.2,0.1,0.3,0.2,0.3,0.2c0.5-0.3,0.5,0,0.6,0.3
	c0.3,0,0.6-0.2,0.8-0.1c0.2,0.1,0.3,0.4,0.5,0.6c0.4-0.3,0.6-0.8,1.1-0.5c0.2,0.1,0.3,0.3,0.5,0.5l-0.1,0.1h1.3c0,0,0,0,0-0.1
	l-0.6-0.1v-0.2c0.2-0.1,0.4-0.2,0.6-0.3c0.3-0.1,0.6-0.1,0.9-0.1c0.3,0,0.5-0.1,0.7-0.4c0.2-0.3,0.5-0.5,0.9-0.5
	c0.3,0,0.5,0,0.8-0.1c0.2,0,0.5,0,0.7,0c0.8-0.2,1.6-0.3,2.4-0.3c0.7,0,1.4-0.2,2-0.6c0.1,0,0.2-0.1,0.3,0c0.2,0.3,0.4,0,0.6-0.1
	s0.4-0.2,0.6-0.3c0.4-0.2,0.8-0.4,1.1-0.7c0.2-0.1,0.5-0.3,0.6-0.2c0.5,0.3,0.8,0,1.2-0.1c0.1,0,0.3,0,0.4,0c0.1,0,0.2,0,0.3,0
	l2.9-1.6c0.4-0.2,0.8-0.4,1.1-0.7c0.5-0.3,0.9-0.7,1.3-1.1c2.7-3.9,3.9-8.7,3.4-13.5c-0.1-0.7-0.2-1.4-0.3-2.1
	c-0.8,0.4-0.8,1-0.7,1.7c0.4,0.1,0.5,0.4,0.5,0.7c0,0.1-0.1,0.2-0.2,0.3c-0.5,0.1-0.3-0.4-0.4-0.6c-0.4,0.2-0.6,0-0.8-0.3
	c-0.4-0.8-0.8-1.7-1.1-2.5c-0.3-0.1-0.5-0.3-0.7-0.5c-0.2-0.2-0.4-0.6-0.7-0.7c-0.5-0.1-0.9-0.2-1.4-0.2c0.2,0.2,0.5,0.3,0.5,0.5
	c0,0.2-0.2,0.5-0.3,0.7c0,0,0,0.1,0,0.1c0,0.3-0.3,0.5-0.6,0.5c-0.2,0-0.5,0.1-0.7,0.3c-0.4,0.2-0.8,0.5-1.3,0.8c0,0,0,0.1,0.1,0.1
	c0.5-0.1,1-0.2,1.6-0.3c0,0.4-0.1,0.8-0.2,1.1c-0.3,0.7-0.8,1.4-1.4,1.8c-1.1,0.7-1.4,2.1-0.8,3.2l0,0v-0.1c0.2,0.1,0.5,0.2,0.7,0.3
	c0,0,0,0.2,0,0.2l-0.7-0.1c-0.1,0.6-0.5,1.2-1,1.5c-0.2,0.2-0.5,0.5-0.5,0.7c0.2,0.5-0.1,0.8-0.4,1.1c-0.1,0.1-0.2,0.3-0.3,0.4
	c-0.1,0.2-0.2,0.4-0.3,0.6c-0.3,0.3-0.6,0.6-0.9,1c-0.3,0.4-0.7,0.6-1.2,0.5c-0.1,0-0.3,0.1-0.4,0.1c-0.1,0-0.5,0-0.6,0
	c-0.1,0-0.1-0.4-0.1-0.6c0-0.2-0.1-0.4-0.1-0.6c-0.2-0.2-0.3-0.5-0.4-0.7c-0.2-0.6-0.3-1.3-0.4-1.9c-0.1-0.5-0.1-1.1,0-1.6
	c0.2-0.6,0.2-1.3,0-1.9c-0.1-0.4-0.3-0.8-0.5-1.1c-0.3-0.3-0.3-0.7-0.2-1.1c0-0.1,0.1-0.3,0.1-0.4C122.1,23.8,122,23.7,121.8,23.8
	 M105.8,20.7c-0.5-0.4-1.2-0.5-1.8-0.3c-0.3,0.1-0.8,0.3-1-0.3c0,0-0.2,0-0.3,0l0.4,0.4h-0.8l0.2-0.8l-1.1,0.1
	c0.5-0.9,1.1-0.6,1.8-0.4v-0.6c-0.1,0.7-0.5,0.1-0.7,0.1c-0.5-0.1-0.2-0.5-0.2-0.8c-0.3-0.1-0.6,0-0.8,0.2c-0.1,0.1-0.3,0.1-0.5,0.1
	c-0.2,0-0.3,0-0.5,0.1c-0.6,0.3-1,0.9-1.2,1.5c-0.1,0.2,0,0.4,0.1,0.5c0.1,0.1,0.4,0,0.5-0.1c0.2-0.1,0.2-0.2,0.3-0.3
	c0.2-0.1,0.4-0.3,0.6-0.4c0.1,0,0.2,0,0.3,0c0,0,0,0.2,0,0.2c-0.1,0.3-0.3,0.5-0.4,0.8c0.7,0.1,0.7,0.1,0.6,0.8c0,0.1,0,0.2-0.1,0.3
	c0,0.3,0,0.5,0.4,0.3c0.2,0,0.4,0,0.6,0c0.1,0,0.2,0,0.2,0c0.3-0.2,0.5-0.4,0.7-0.6c0.3-0.3,0.6-0.1,0.9,0c0.3,0.1,0.6,0.2,0.9,0.3
	c0.1,0,0.3-0.1,0.3-0.2c0.1-0.3,0.3-0.7,0.4-1 M124.7,15.1h-0.2c-0.2-0.3-0.4-0.6-0.7-0.8c-0.1-0.1-0.3-0.1-0.3,0
	c-0.2,0.2-0.3,0.5-0.4,0.7c-0.1,0.1-0.2,0.2-0.3,0.2l-0.2-0.3c-0.1-0.1-0.1-0.2-0.2-0.2c0-0.1-0.1-0.2-0.1-0.3
	c0-0.1,0.2-0.1,0.3-0.1c0.1,0,0.2,0,0.3,0l0.1-0.1l-1-0.7c0,0.2,0,0.4,0,0.6c0,0.1-0.1,0.3-0.2,0.3c-0.1,0-0.2-0.1-0.3-0.2
	c0-0.2,0-0.3,0-0.5c0-0.1,0-0.3,0.1-0.4h-0.8l-0.2,0.4l0.4,0.2c-0.1,0.1-0.1,0.3-0.3,0.3c-0.2,0.1-0.4,0.2-0.6,0.2l0,0l-1.1,0.6
	c0.2,0,0.4,0,0.6-0.1c0.5-0.2,1-0.3,1.5-0.3c0.2,0,0.4,0,0.6,0c0.4-0.1,0.6,0.1,0.6,0.5c0,0.4,0.2,0.5,0.5,0.7
	c0.2,0.1,0.4,0.2,0.6,0.3c0.2,0.1,0.4,0.3,0.7,0.5c0.1-0.8,0.3-1,0.8-0.6c0.7,0.3,1.4,0.5,2.2,0.6l0.2-0.8l-0.5,0.2
	c-0.1-0.1-0.1-0.1-0.1-0.2c-0.1-0.4-0.3-0.5-0.6-0.3c-0.1,0.1-0.3,0.1-0.4,0.2c-0.2,0-0.5,0-0.7,0c0,0-0.1-0.2-0.1-0.3
	c0-0.1,0.1-0.1,0.2-0.2c0.2,0,0.3,0,0.5,0l-0.4-1h-0.1l-0.2,1.1 M105.5,11.8l1,0.1l0.1,0.1l1.5-2C107.1,10.4,106.2,11,105.5,11.8
	 M125.8,12.7c0,0-0.1,0.1-0.1,0.1c0,0.2-0.2,0.5-0.1,0.7c0.1,0.2,0.4,0.2,0.7,0.2c0.2,0,0.5,0,0.7,0.1c0.2,0.1,0.5,0.2,0.7,0.3
	l0.1-0.1l-1-1c0,0-0.2,0.3-0.2,0.3C126.3,13.1,126.1,12.9,125.8,12.7 M107.2,9.3L107.2,9.3c0.1-0.1,0.1-0.1,0.2-0.2
	c0-0.1,0-0.3,0.1-0.3c0.3-0.2,0.5-0.3,0.8-0.5c0.2-0.1,0.6-0.2,0.7-0.3c0.2-0.4,0.5-0.5,0.9-0.6c-0.1-0.1-0.3-0.1-0.4-0.1
	c-0.8,0.5-1.6,1-2.4,1.5c-0.3,0.2-0.5,0.4-0.8,0.6v0.1l1-0.5L107.2,9.3 M129.6,21l0.1-0.1c-0.2-0.3-0.4-0.6-0.5-1s-0.5-0.8-0.8-1.2
	l-0.7-1.1l-0.1,0.1c0.3,0.4,0.5,0.8,0.7,1.2C128.5,19.7,128.9,20.4,129.6,21 M122.5,10.3h0.7c0.1,0,0.2-0.1,0.2-0.1
	c0-0.3,0.2-0.7,0-0.9c-0.2-0.3-0.3-0.6-0.2-1l-0.3,0.4c0.1,0.3,0.2,0.5,0.2,0.6C122.9,9.8,122.7,10.1,122.5,10.3 M130.5,15.5
	c-0.3-0.4-0.3-1.1-0.9-1.4c-0.2-0.2-0.4-0.4,0.1-0.8c-0.3,0-0.4,0-0.5,0c-0.1,0.1-0.1,0.3-0.1,0.4c0,0.1,0.2,0.2,0.3,0.4
	c0.1,0.1,0.3,0.3,0.3,0.4C129.6,15.3,130.1,15.3,130.5,15.5 M109.7,9.9c-0.4,0-0.7-0.4-1-0.2c0,0-0.1,0-0.1-0.1
	c0-0.1-0.2-0.1-0.2-0.1c-0.1,0.1-0.1,0.2-0.1,0.3c0.4,0.1,0.9-0.4,1.1,0.3L109.7,9.9 M109,9.3l0.9-0.6C109.6,8.4,109.4,8.5,109,9.3"
	/>
</svg>
