<?xml version="1.0" encoding="utf-8"?>
<!-- Generator: Adobe Illustrator 21.0.0, SVG Export Plug-In . SVG Version: 6.00 Build 0)  -->
<svg version="1.1" id="Layer_1" xmlns="http://www.w3.org/2000/svg" xmlns:xlink="http://www.w3.org/1999/xlink" x="0px" y="0px"
	 viewBox="0 0 87.1 59" style="enable-background:new 0 0 87.1 59;" xml:space="preserve">
<style type="text/css">
	.st0{clip-path:url(#SVGID_2_);}
	.st1{fill:#FFFFFF;}
	.st2{opacity:0.2;clip-path:url(#SVGID_4_);}
	.st3{clip-path:url(#SVGID_6_);}
	.st4{clip-path:url(#SVGID_4_);}
	.st5{opacity:0.4;clip-path:url(#SVGID_8_);}
	.st6{clip-path:url(#SVGID_10_);}
	.st7{clip-path:url(#SVGID_8_);}
	.st8{opacity:0.6;clip-path:url(#SVGID_12_);}
	.st9{clip-path:url(#SVGID_14_);}
	.st10{clip-path:url(#SVGID_12_);}
	.st11{opacity:0.9;clip-path:url(#SVGID_16_);}
	.st12{clip-path:url(#SVGID_18_);}
	.st13{clip-path:url(#SVGID_16_);}
	.st14{clip-path:url(#SVGID_21_);}
	.st15{opacity:0.8;clip-path:url(#SVGID_22_);}
	.st16{clip-path:url(#SVGID_24_);}
	.st17{clip-path:url(#SVGID_22_);fill:#FFFFFF;}
	.st18{clip-path:url(#SVGID_22_);}
</style>
<title>flogo</title>
<g>
	<defs>
		<rect id="SVGID_1_" x="-112.5" y="-10.9" width="593.2" height="799.2"/>
	</defs>
	<clipPath id="SVGID_2_">
		<use xlink:href="#SVGID_1_"  style="overflow:visible;"/>
	</clipPath>
	<g class="st0">
		<path class="st1" d="M69.1,57.3c-5.2,0-10.1-2-13.7-5.7c-0.2-0.2-0.6-0.3-0.3-0.7c0,0-0.1-0.1-0.1-0.2c-3.3-3.9-4.7-9-4-14.1
			c0-0.2,0-0.4-0.1-0.6c0-0.1,0-0.2,0-0.3c0.6-2.8,1.8-5.4,3.5-7.7c0.5-0.5,0.9-0.9,1.4-1.3c1.4-1.5,3.1-2.7,4.9-3.6
			c0.9-0.4,1.8-0.9,2.7-1.2c0.5-0.2,1.1-0.3,1.6-0.3c0.6-0.2,1.2-0.3,1.8-0.4c3.8-0.3,7.7,0.6,11,2.6c1.3,0.8,2.5,1.8,3.6,2.8
			c2.3,2.2,3.9,4.9,4.7,8c0.5,1.7,0.6,3.5,0.5,5.3c-0.2,3.3-1.3,6.5-3.1,9.3c-2.6,4.2-6.6,6.4-11.3,7.5C71.2,57,70.1,57.2,69.1,57.3
			 M71.6,38.1L71.6,38.1l-0.2-0.4h-0.4c-0.2-0.6-0.3-0.6-0.8-0.4c-0.4,0.2-0.9,0.3-1.4,0.3c-0.1,0-0.2,0-0.2,0
			c-0.4,0.3-0.8,0.1-1-0.2c-0.2-0.3-0.5-0.6-0.7-0.9c-0.1-0.2-0.3-0.3-0.4-0.5c-0.3-0.3-0.4-0.8-0.2-1.3c0.1-0.2,0.2-0.5,0.1-0.8
			c-0.1-0.3-0.1-0.7,0.2-1c0.4-0.5,0.8-0.9,1.1-1.3c0.1-0.1,0.2-0.2,0.2-0.4c0-0.4,0.2-0.7,0.6-0.8c0.1-0.1,0.2-0.2,0.3-0.3
			c-0.1-0.1-0.2-0.2-0.2-0.2c-0.5,0-0.4-0.3-0.3-0.6c0-0.2,0.1-0.5,0.1-0.7c0-0.3,0.2-0.4,0.4-0.4c0.1,0,0.3,0.1,0.4,0.1
			c0.3,0.1,0.5,0,0.5-0.3c0-0.1-0.2-0.2-0.3-0.4L69,27.3c0.1-0.1,0.2-0.2,0.3-0.2c0.2-0.1,0.3-0.1,0.5-0.1c-0.9,0-0.9,0-0.8-0.4
			l-0.4,0.1c-0.3,0.1-0.4,0-0.4-0.3c0-0.3,0.2-0.6,0.6-0.7c0,0,0,0,0,0c0.1,0,0.1-0.1,0.2-0.2s0.3-0.3,0.3-0.3s0.2,0.2,0.3,0.3
			s0.1,0.2,0.1,0.2l0.6,0.8l0.7-0.5l0.1-0.6c-0.4-0.1-0.5-0.2-0.5-0.6c0-0.2,0.2-0.4,0.3-0.5s0.5-0.3,0.7-0.5
			c0.6-0.7,1.7-0.8,2.4-0.2c0,0,0,0,0.1,0c0.2,0.2,0.5,0.3,0.7,0.4c0.3,0.1,0.7,0.2,1.1,0.3s0.5,0.1,0.8,0.1s0.6,0.2,0.8,0.1
			c0.3-0.3,0.4-0.1,0.6,0.1c0.3,0.4,0.7,0.2,1,0.1c-2.9-2.2-6.4-3.3-10-3.4c-0.3,0-0.6,0.1-0.9,0.3c0,0-0.1,0.1-0.1,0.2l-0.7,0.9
			c0.1,0.1,0.1,0.3-0.2,0.4c-0.2,0.1-0.5,0.2-0.7,0.3c-0.4,0.1-0.8,0.3-1.2,0.5c-0.6,0.3-1.1,0.7-1.5,1.2c-0.1,0.1-0.2,0.2-0.3,0.1
			C63.4,25.3,63,25.2,63,25c0-0.4,0.1-0.7,0.3-1c0.2-0.3,0.3-0.6,0.3-1l-1.2-0.1l-1,0.8l0.8,0.9L61.4,25c-0.1,0.2-0.2,0.3-0.3,0.5
			c-0.1,0.4-0.2,0.8-0.2,1.1c0,0,0.1,0.1,0.2,0.1c0.3,0.1,0.2,0.3,0.1,0.5S61,27.5,61,27.6c0.1,0.1,0.3,0.2,0.3,0.3
			s-0.1,0.4-0.2,0.4c-0.3,0.1-0.7,0.1-1,0.2v-0.1l0.3-0.5c-0.5,0.1-0.8,0.3-1,0.8h0.5c-0.1,0.3-0.2,0.4-1.1,0.9l-0.3-0.2l-1.2,1.1
			c-0.3,0.2-0.6,0.5-0.8,0.8c-0.2,0.4-0.5,0.6-0.8,0.8c-0.5,0.2-0.7,0.6-0.7,1.1h0.4c-0.1,0.5,0.5,0.9,0.1,1.3
			c0.3,0.1,0.5,0.1,0.8,0.2c0.3,0,0.6-0.1,0.8,0c0.2,0,0.4,0.1,0.6,0.3c0.1,0.2,0.1,0.5,0.1,0.8c0.1,0.1,0.2,0.2,0.3,0.2
			c0,0-0.1,0.2-0.1,0.2c-0.1,0-0.2,0-0.4-0.1l-0.1,0.8c0.2,0.4,0.5,0.6,0.9,0.6c0.3,0,0.7,0.2,0.8,0.5c0.2,0.3,0.3,0.7,0.5,1.1
			l0.1-0.1c0.2,0,0.4,0,0.5,0.1c0.3,0.3,0.6,0.3,0.9,0.4s0.5,0.1,0.7,0.2c0.7,0.3,1,1,0.4,1.5c-0.3,0.2-0.5,0.6-0.4,1
			c0.1,0.7,0,1.3-0.3,1.9c-0.1,0.2-0.3,0.4-0.5,0.4c-0.3,0-0.5,0.2-0.7,0.5c-0.1,0.3-0.1,0.7-0.1,1c-0.1,0.4-0.6,0.9-0.9,0.9
			c0.2,0.5,0.2,0.5-0.3,0.8c0,0-0.1,0.1-0.1,0.1c-0.1,0.5-0.3,0.9,0.1,1.3c0.1,0.1,0.1,0.2,0.1,0.3c-0.1,0.3,0,0.6,0.3,0.8
			c0.3,0.2,0.5,0.4,0.8,0.7l-0.1,0.1c-0.3,0-0.7-0.1-1-0.2c-0.3-0.2-0.5-0.4-0.7-0.7c-0.4-0.5-1-0.9-1.1-1.7c0,0,0-0.1-0.1-0.1
			c-0.3-0.4-0.5-0.9-0.7-1.3c-0.2-0.6-0.4-1.2-0.5-1.8c-0.1-0.3-0.2-0.7-0.2-1.1c0.1-0.7-0.3-1.3-0.9-1.6c-0.2-0.1-0.3-0.2-0.4-0.3
			c-0.5-0.8-1.3-1.5-1.1-2.6l0,0c-0.2-0.3,0-0.5,0.1-0.7c0.3-0.5,0.7-1,0.3-1.5c-0.1,0-0.3,0.2-0.3,0.2c-0.4-0.1-0.7-0.3-0.9-0.7
			c-0.2-0.5-0.7-0.5-1.1-0.7c0,0-0.3,0.2-0.4,0.3c0,0.1-0.1,0.2-0.1,0.3c-0.2,1.7-0.2,3.3,0,5c0.5,3.5,2,6.8,4.3,9.4
			c0.3,0.3,0.6,0.6,1,0.8c0.6,0.3,1.3,0.6,1.8,0.9c0.1,0,0.2-0.1,0.3-0.1c0.3,0.2,0.5,0.4,0.8,0.5c0.6,0.2,1.2,0.4,1.7,0.6
			c0-0.2,0-0.5,0-0.7c0-0.2,0.3-0.3,0.3-0.5h0.2c0.1,0,0.2,0,0.2,0c0.3-0.2,0.3,0.1,0.4,0.2l-0.4,0.4c0.3,0.3,0.6,0.5,0.8,0.8
			c0.1,0.2,0.2,0.4,0.3,0.6l-0.7,0.2l-0.2,0.1c0.1,0.1,0.3,0.2,0.3,0.2c0.4-0.3,0.5,0,0.5,0.3c0.3,0,0.5-0.1,0.7,0s0.3,0.3,0.4,0.5
			c0.3-0.3,0.5-0.7,1-0.5c0.2,0.1,0.3,0.3,0.4,0.5l-0.1,0.1h1.2c0,0,0,0,0-0.1L66,55.7v-0.2c0.2-0.1,0.3-0.2,0.5-0.3
			c0.3,0,0.5-0.1,0.8-0.1c0.3,0,0.5-0.1,0.6-0.3c0.2-0.3,0.5-0.5,0.8-0.5c0.2,0,0.5,0,0.7-0.1c0.2,0,0.4,0,0.6,0
			c0.7-0.2,1.4-0.3,2.1-0.3c0.6,0,1.3-0.2,1.8-0.5c0.1,0,0.2-0.1,0.2,0c0.2,0.3,0.4,0,0.6-0.1s0.4-0.2,0.6-0.3
			c0.3-0.2,0.7-0.4,1-0.6c0.2-0.1,0.4-0.3,0.6-0.2c0.4,0.3,0.7,0,1.1-0.1c0.1,0,0.3,0,0.4,0c0.1,0,0.2,0,0.3,0l2.5-1.4
			c0.3-0.2,0.7-0.4,1-0.6c0.4-0.3,0.8-0.6,1.2-1c2.4-3.5,3.5-7.8,3-12c-0.1-0.6-0.2-1.2-0.3-1.8c-0.7,0.3-0.7,0.9-0.6,1.5
			c0.3,0.1,0.4,0.3,0.4,0.6c0,0.1-0.1,0.2-0.2,0.2c-0.4,0-0.2-0.4-0.4-0.5c-0.3,0.2-0.5,0-0.7-0.3c-0.3-0.7-0.7-1.5-1-2.2
			c-0.2-0.1-0.5-0.2-0.6-0.4c-0.2-0.2-0.4-0.5-0.6-0.6c-0.4-0.1-0.8-0.2-1.3-0.2c0.2,0.2,0.4,0.3,0.5,0.5s-0.2,0.4-0.3,0.6
			c0,0,0,0.1,0,0.1c0,0.2-0.3,0.4-0.5,0.4c-0.2,0-0.4,0.1-0.6,0.2c-0.4,0.2-0.7,0.5-1.1,0.7c0,0,0,0.1,0.1,0.1
			c0.4-0.1,0.8-0.1,1.4-0.2c0,0.3-0.1,0.7-0.2,1c-0.2,0.7-0.7,1.2-1.3,1.6c-0.9,0.6-1.3,1.8-0.7,2.8l0,0v-0.1
			c0.2,0.1,0.4,0.2,0.6,0.3c0,0,0,0.1,0,0.2l-0.6-0.1c-0.1,0.6-0.4,1.1-0.9,1.3c-0.2,0.1-0.5,0.5-0.4,0.6c0.2,0.5-0.1,0.7-0.3,1
			c-0.1,0.1-0.2,0.2-0.2,0.4c-0.1,0.2-0.1,0.4-0.2,0.5c-0.3,0.3-0.6,0.6-0.8,0.9C75,46.8,74.6,47,74.2,47c-0.1,0-0.2,0.1-0.3,0.1
			s-0.4,0-0.5,0s-0.1-0.4-0.1-0.5c0-0.2,0-0.4-0.1-0.5c-0.1-0.2-0.3-0.4-0.4-0.7c-0.2-0.6-0.3-1.1-0.4-1.7c-0.1-0.5-0.1-1,0-1.5
			c0.2-0.5,0.2-1.1,0-1.7c-0.1-0.4-0.2-0.7-0.4-1c-0.2-0.3-0.3-0.7-0.2-1c0-0.1,0.1-0.2,0.1-0.3C71.8,38.2,71.7,38.1,71.6,38.1
			 M57.3,35.4c-0.5-0.4-1.1-0.5-1.6-0.3c-0.3,0.1-0.7,0.3-0.9-0.3c0,0-0.2,0-0.2,0l0.3,0.4h-0.7l0.2-0.7l-0.9,0.1
			c0.4-0.8,1-0.5,1.6-0.3v-0.5c-0.1,0.6-0.5,0.1-0.6,0.1c-0.5-0.1-0.2-0.5-0.2-0.7c-0.3-0.1-0.6,0-0.8,0.2c-0.1,0.1-0.3,0.1-0.4,0.1
			c-0.1,0-0.3,0-0.4,0.1c-0.5,0.3-0.9,0.8-1.1,1.3c0,0.2,0,0.3,0.1,0.5c0.1,0.1,0.3,0,0.5-0.1s0.2-0.2,0.3-0.3
			c0.2-0.1,0.3-0.2,0.5-0.3c0.1,0,0.2,0,0.3,0c0,0,0,0.2,0,0.2c-0.1,0.2-0.2,0.5-0.3,0.7c0.7,0.1,0.7,0.1,0.5,0.8
			c0,0.1,0,0.2-0.1,0.2c0,0.3,0,0.4,0.3,0.3c0.2,0,0.3,0,0.5,0c0.1,0,0.2,0,0.2,0c0.2-0.2,0.4-0.4,0.7-0.6c0.3-0.3,0.5-0.1,0.8,0
			s0.5,0.2,0.8,0.3c0.1,0,0.2-0.1,0.3-0.2c0.1-0.3,0.2-0.6,0.3-0.9 M74.1,30.4h-0.2c-0.2-0.3-0.4-0.5-0.6-0.7
			c-0.1-0.1-0.3-0.1-0.3,0c-0.2,0.2-0.3,0.5-0.4,0.7c-0.1,0.1-0.2,0.2-0.2,0.2l-0.2-0.2c-0.1-0.1-0.1-0.1-0.2-0.2
			c0-0.1-0.1-0.2-0.1-0.3s0.2-0.1,0.3-0.1c0.1,0,0.2,0,0.3,0l0.1-0.1l-0.9-0.6c0,0.2,0,0.3,0,0.5c0,0.1-0.1,0.2-0.2,0.3
			c-0.1,0-0.2-0.1-0.3-0.1c0-0.1,0-0.3,0-0.4c0-0.1,0-0.2,0.1-0.4h-0.7l-0.2,0.4l0.3,0.1c-0.1,0.1-0.1,0.2-0.2,0.3
			c-0.2,0.1-0.4,0.1-0.6,0.2l0,0L69,30.3c0.2,0,0.3,0,0.5-0.1c0.4-0.2,0.9-0.3,1.3-0.2c0.2,0,0.4,0,0.6,0c0.3,0,0.6,0.1,0.5,0.4
			s0.2,0.5,0.5,0.6c0.2,0.1,0.3,0.2,0.5,0.3c0.2,0.1,0.4,0.3,0.6,0.5c0.1-0.7,0.3-0.8,0.7-0.6c0.6,0.3,1.3,0.5,1.9,0.5l0.1-0.7
			l-0.4,0.2c-0.1,0-0.1-0.1-0.1-0.2c-0.1-0.3-0.3-0.4-0.5-0.3c-0.1,0.1-0.3,0.1-0.4,0.2c-0.2,0-0.4,0-0.7,0c0,0-0.1-0.2-0.1-0.2
			c0-0.1,0.1-0.1,0.2-0.1c0.2,0,0.3,0,0.5,0l-0.4-0.9h-0.1L74.1,30.4 M57,27.5l0.9,0.1l0.1,0.1l1.3-1.7C58.4,26.2,57.6,26.7,57,27.5
			 M75.1,28.3c0,0,0,0.1-0.1,0.1c0,0.2-0.2,0.4-0.1,0.6s0.4,0.2,0.6,0.1c0.2,0,0.4,0,0.6,0.1c0.2,0.1,0.4,0.2,0.6,0.3l0.1-0.1
			L76,28.5c0,0-0.2,0.3-0.2,0.3C75.5,28.6,75.3,28.4,75.1,28.3 M58.5,25.3L58.5,25.3c0.1-0.1,0.1-0.1,0.1-0.2c0-0.1,0-0.2,0.1-0.3
			c0.2-0.2,0.5-0.3,0.7-0.4c0.2-0.1,0.6-0.1,0.6-0.3c0.2-0.4,0.4-0.5,0.8-0.6c-0.1-0.1-0.2-0.1-0.3-0.1c-0.7,0.4-1.4,0.9-2.1,1.3
			c-0.3,0.2-0.5,0.4-0.7,0.5v0.1l0.9-0.5L58.5,25.3 M78.4,35.6l0.1-0.1c-0.2-0.3-0.3-0.6-0.5-0.8s-0.5-0.7-0.7-1.1l-0.6-1l-0.1,0.1
			c0.3,0.3,0.5,0.7,0.6,1.1C77.5,34.5,77.9,35.1,78.4,35.6 M72.2,26.1h0.7c0.1,0,0.2,0,0.2-0.1c0-0.3,0.2-0.6,0-0.8
			c-0.2-0.2-0.3-0.6-0.2-0.9l-0.3,0.4c0.1,0.3,0.2,0.4,0.2,0.5C72.5,25.6,72.3,25.9,72.2,26.1 M79.2,30.8c-0.3-0.4-0.3-1-0.8-1.3
			c-0.2-0.1-0.4-0.4,0.1-0.7c-0.2,0-0.4,0-0.4,0C78,29,78,29.1,78,29.3c0,0.1,0.2,0.2,0.3,0.3s0.3,0.3,0.2,0.4
			C78.4,30.6,78.9,30.6,79.2,30.8 M60.8,25.8c-0.4,0-0.6-0.4-0.9-0.2c0,0-0.1,0-0.1,0s-0.2-0.1-0.2-0.1c0,0.1-0.1,0.2-0.1,0.3
			c0.4,0.1,0.8-0.4,1,0.3L60.8,25.8 M60.1,25.2l0.8-0.5C60.6,24.5,60.4,24.6,60.1,25.2"/>
		<path class="st1" d="M80.3,43.5L80,43l-0.3,0.3c-0.2,0.2-0.4,0.4-0.6,0.6c-0.4,0.2-0.6,0.4-0.4,0.8c0,0.1,0,0.2-0.1,0.2
			c-0.1,0.3-0.3,0.6-0.3,1s-0.1,0.6,0.2,0.6c0.3,0,0.6-0.1,0.8-0.3C79.6,45.4,79.9,44.5,80.3,43.5 M66.4,24.8
			c0.3-0.1,0.6-0.2,0.8-0.4c0.1-0.1,0.2-0.2,0.2-0.3c0-0.1-0.1-0.2-0.2-0.2c-0.2-0.1-0.5-0.1-0.7,0c-0.2,0.1-0.4,0.3-0.6,0.5
			L66.4,24.8 M63.7,36.2c0.6,0.1,0.6,0,0.4-0.5c-0.1-0.1-0.3-0.2-0.5-0.2c-0.1,0-0.3,0-0.4,0.1c0.1,0.1,0.2,0.2,0.2,0.3
			C63.5,35.9,63.6,36.1,63.7,36.2 M84.8,39.2l-0.2-0.3c-0.1,0.1-0.2,0.2-0.3,0.3c0,0.1,0.1,0.2,0.2,0.3L84.8,39.2 M81.7,41.5
			c-0.1-0.1-0.2-0.3-0.3-0.2s-0.2,0.1-0.3,0.2c0.1,0.1,0.1,0.2,0.2,0.2S81.6,41.6,81.7,41.5"/>
		<path class="st1" d="M80.3,43.5c-0.4,0.9-0.7,1.9-1.1,2.8c-0.2,0.2-0.5,0.3-0.8,0.3c-0.3,0-0.3-0.4-0.2-0.6s0.2-0.6,0.3-1
			c0-0.1,0.1-0.2,0.1-0.2c-0.1-0.4,0.1-0.7,0.4-0.8c0.2-0.2,0.4-0.4,0.6-0.6l0.3-0.3L80.3,43.5"/>
		<path class="st1" d="M66.4,24.8l-0.6-0.4c0.2-0.2,0.4-0.3,0.6-0.5c0.2-0.1,0.5-0.1,0.7,0c0.1,0,0.2,0.1,0.2,0.2
			c0,0.1-0.1,0.2-0.2,0.3C66.9,24.6,66.7,24.7,66.4,24.8"/>
		<path class="st1" d="M63.7,36.2c-0.1-0.2-0.2-0.3-0.3-0.4c-0.1-0.1-0.1-0.2-0.2-0.3c0.1,0,0.3-0.1,0.4-0.1c0.2,0,0.3,0.1,0.5,0.2
			C64.3,36.2,64.3,36.3,63.7,36.2"/>
		<path class="st1" d="M71,39.5c0,0.2,0,0.4-0.1,0.5c0,0.1-0.2,0.1-0.3,0.1s-0.1-0.2-0.1-0.3C70.7,39.7,70.8,39.6,71,39.5L71,39.5z"
			/>
		<path class="st1" d="M84.8,39.2l-0.3,0.3c-0.1-0.1-0.2-0.2-0.2-0.3c0.1-0.1,0.2-0.2,0.3-0.3L84.8,39.2"/>
		<path class="st1" d="M81.7,41.5c-0.1,0.1-0.2,0.2-0.3,0.2s-0.2-0.2-0.2-0.2c0.1-0.1,0.2-0.2,0.3-0.2S81.6,41.4,81.7,41.5"/>
		<path class="st1" d="M3.1,15.9C4.4,17.6,7,17.3,7,17.3V10h4.1c1.3-0.3,2.2-1.4,2.2-2.7H7L6.9,3.6h5.8c0.9-0.5,1.5-1.6,1.4-2.6H3.1
			"/>
		<path class="st1" d="M38.7,8.2c-0.8-1.8-2.5-3-4.5-3.1c-0.5-0.1-2.9,0.4-4.2,0.3c-0.7,0-1.5-0.1-2.2-0.4v10.8
			c0.9,1,2.3,1.5,3.6,1.3V8c0,0,3.2-0.5,3.4,0.8l-0.1,7.1c1.1,1,2.5,1.5,3.9,1.4"/>
		<path class="st1" d="M48.1,8c0,0-2.7-0.3-3.5,0.9s-0.3,3.3-0.3,4.4s1.8,1.3,1.8,1.3c2.3,0.7,4-1.7,4-1.7s0.9,1.9,0.3,2.7
			c-1.4,1.5-3.5,2.2-5.5,1.8c-1.7-0.3-3.2-1.3-4-2.8c0,0-0.5-4.8,0-6.5s2.2-2.9,5.3-2.9"/>
		<path class="st1" d="M43.5,5.7C44,5.1,46.6,5,47.9,5.4c1.1,0.3,2.1,1.1,2.6,2.2c0.3,0.9-0.8,2.8-0.8,2.8c-0.6-1.8-3-2.3-3-2.3
			s-2.4-0.3-2.5,1.1"/>
		<path class="st1" d="M69.7,17.6c0,0-2.9-0.6-3.7-1.7V5.1c1.1,0.3,2.2,0.4,3.3,0.3c0.9-0.2,1.8-0.4,2.7-0.4c1.3,0,2.5,0.8,2.9,2.1
			c0,0-0.3,2.4-1.6,2.8c0-0.8-0.5-1.5-1.2-1.8c-0.8-0.3-1.7-0.4-2.5-0.1L69.7,17.6z"/>
		<path class="st1" d="M78.6,5.9c2.5-1.7,4.8,0.5,4.8,0.5V0c0,0,3.3-0.1,3.7,1.9v15.8c0,0-0.5-0.7-2.6-0.6c-0.9,0.4-1.8,0.6-2.7,0.8
			c-1,0.1-4.4-1.2-5.4-3.3V8.5C76.3,8.5,76.2,7.5,78.6,5.9 M79.6,13.3c0.5,0.6,1.1,1,1.9,1.2c1.1,0.1,1.3-0.3,1.3-0.3V9
			c-0.4-0.6-0.9-0.9-1.6-1c-1,0-1.6,1.2-1.6,1.2L79.6,13.3z"/>
		<path class="st1" d="M17.8,8.5c0,0,0.2-1,2-1s2.1,1,2.1,1h3.7c0,0-0.3-3.5-5.8-3.5c0,0-4.5-0.3-5.8,3V14h3.7"/>
		<path class="st1" d="M21.8,13.9c0,0-0.2,1-2,1s-2.1-1-2.1-1H14c0,0,0.3,3.6,5.7,3.6c0,0,4.5,0.3,5.8-3V8.4h-3.6"/>
		<path class="st1" d="M56,8.6c0,0,0.2-1,2-1s2.1,1,2.1,1h3.7c0,0-0.3-3.5-5.8-3.5c0,0-4.5-0.3-5.8,3v6.1h3.6"/>
		<path class="st1" d="M60,14c0,0-0.2,1-2,1s-2.1-1-2.1-1h-3.7c0,0,0.3,3.6,5.8,3.6c0,0,4.5,0.3,5.8-3V8.5h-3.7"/>
		<path class="st1" d="M35.9,27.7c-0.8,0.5-1.8,0.4-2.5-0.3v3.3c0,0-1.7,0.1-1.9-1v-8.2c0,0,0.3,0.4,1.4,0.3
			c0.5-0.2,0.9-0.3,1.4-0.4c1.1,0.1,2.2,0.7,2.8,1.7v3.1C37.1,26.4,37.1,26.9,35.9,27.7 M35.4,23.9c-0.3-0.3-0.6-0.5-1-0.6
			c-0.5-0.1-0.7,0.2-0.7,0.2v2.7c0.2,0.3,0.5,0.5,0.8,0.5c0.5,0,0.8-0.6,0.8-0.6L35.4,23.9z"/>
		<path class="st1" d="M24.6,26.4c0.4,1,1.3,1.6,2.3,1.6c0.3,0.1,1.5-0.2,2.1-0.2c0.4,0,0.8,0.1,1.1,0.2v-5.6
			c-0.5-0.5-1.2-0.8-1.9-0.7v4.8c0,0-1.6,0.3-1.8-0.4v-3.7c-0.5-0.5-1.3-0.8-2-0.7"/>
		<path class="st1" d="M13.4,28.1c0,0-1.5-0.3-1.9-0.9v-5.6c0.6,0.1,1.1,0.2,1.7,0.2c0.5-0.1,0.9-0.2,1.4-0.2c0.7,0,1.3,0.4,1.5,1.1
			c0,0-0.1,1.3-0.8,1.5c0-0.4-0.2-0.8-0.6-0.9c-0.4-0.2-0.9-0.2-1.3,0L13.4,28.1z"/>
		<path class="st1" d="M5.3,21.8c0,0,0.1-0.7,1.2-0.7s1.3,0.7,1.3,0.7h2.3c0,0-0.2-2.5-3.5-2.5c0,0-2.7-0.2-3.5,2.1V26l2.2,0.3
			c0-0.3,0-0.7,0-1L5.3,21.8z"/>
		<path class="st1" d="M5.3,25.7c0,0,0.1,0.7,1.2,0.7s1.3-0.7,1.3-0.7h2.3c0,0-0.2,2.5-3.5,2.5c0,0-2.7,0.2-3.5-2.1v-4.5l2.3-0.3
			c0,0.3,0,0.7,0,1L5.3,25.7z"/>
		<path class="st1" d="M10.1,25.7c-0.4,0.3-0.9,0.5-1.4,0.5c0-0.3,0-0.6,0-0.9v-1.2H6.6c-0.3-0.2-0.5-0.5-0.5-0.9h4"/>
		<rect x="7.8" y="24.2" class="st1" width="2.3" height="1.6"/>
		<path class="st1" d="M19.2,23.4c0,0,0.1-0.5,1-0.5s1.1,0.5,1.1,0.5h1.9c0,0-0.2-1.8-3-1.8c0,0-2.3-0.1-3,1.6v3.1h1.9"/>
		<path class="st1" d="M21.3,26.2c0,0-0.1,0.5-1,0.5s-1.1-0.5-1.1-0.5h-1.9c0,0,0.2,1.8,3,1.8c0,0,2.3,0.1,3-1.6v-3.2h-1.9"/>
		<g>
			<g>
				<defs>
					<rect id="SVGID_3_" x="28" y="39.7" width="27.8" height="9.8"/>
				</defs>
				<use xlink:href="#SVGID_3_"  style="overflow:visible;fill:#FFFFFF;"/>
				<clipPath id="SVGID_4_">
					<use xlink:href="#SVGID_3_"  style="overflow:visible;"/>
				</clipPath>
				<g class="st2">
					<path class="st1" d="M28.7,40c4.6,1.3,9.1,3,13.5,5c4.2,2,8.5,4.5,13.6,4.5c-7.1-1.1-12.7-4.6-18.5-7.2c-2-0.9-4.2-2.1-6.1-2.5
						c-0.6-0.1-1.3-0.1-1.9-0.1C28.5,39.7,28,39.8,28.7,40"/>
					<g>
						<defs>
							<path id="SVGID_5_" d="M28.7,40c4.6,1.3,9.1,3,13.5,5c4.2,2,8.5,4.5,13.6,4.5c-7.1-1.1-12.7-4.6-18.5-7.2
								c-2-0.9-4.2-2.1-6.1-2.5c-0.6-0.1-1.3-0.1-1.9-0.1C28.5,39.7,28,39.8,28.7,40"/>
						</defs>
						<use xlink:href="#SVGID_5_"  style="overflow:visible;fill:#FFFFFF;"/>
						<clipPath id="SVGID_6_">
							<use xlink:href="#SVGID_5_"  style="overflow:visible;"/>
						</clipPath>
						<g class="st3">
							<rect x="28" y="39.7" class="st1" width="27.8" height="9.8"/>
						</g>
					</g>
				</g>
				<g class="st4">
					<g>
						<defs>
							<rect id="SVGID_7_" x="23.2" y="39.8" width="34.8" height="11.4"/>
						</defs>
						<use xlink:href="#SVGID_7_"  style="overflow:visible;fill:#FFFFFF;"/>
						<clipPath id="SVGID_8_">
							<use xlink:href="#SVGID_7_"  style="overflow:visible;"/>
						</clipPath>
						<g class="st5">
							<path class="st1" d="M25.4,39.8c-0.6,0.1-1.9,0-2.2,0.5c6.8,0.7,12.2,3.1,17.5,5.5s10.6,5.3,17.3,5c-6.7-0.2-11.2-2.7-16-5
								c-2.5-1.4-5.1-2.5-7.8-3.5c-2.7-1.1-5.7-2.5-8.7-2.5L25.4,39.8L25.4,39.8z"/>
							<g>
								<defs>
									<path id="SVGID_9_" d="M25.4,39.8c-0.6,0.1-1.9,0-2.2,0.5c6.8,0.7,12.2,3.1,17.5,5.5s10.6,5.3,17.3,5
										c-6.7-0.2-11.2-2.7-16-5c-2.5-1.4-5.1-2.5-7.8-3.5c-2.7-1.1-5.7-2.5-8.7-2.5L25.4,39.8L25.4,39.8z"/>
								</defs>
								<use xlink:href="#SVGID_9_"  style="overflow:visible;fill:#FFFFFF;"/>
								<clipPath id="SVGID_10_">
									<use xlink:href="#SVGID_9_"  style="overflow:visible;"/>
								</clipPath>
								<g class="st6">
									<rect x="23.2" y="39.8" class="st1" width="34.8" height="11.4"/>
								</g>
							</g>
						</g>
						<g class="st7">
							<g>
								<defs>
									<rect id="SVGID_11_" x="17.9" y="40.8" width="44.4" height="13.1"/>
								</defs>
								<use xlink:href="#SVGID_11_"  style="overflow:visible;fill:#FFFFFF;"/>
								<clipPath id="SVGID_12_">
									<use xlink:href="#SVGID_11_"  style="overflow:visible;"/>
								</clipPath>
								<g class="st8">
									<path class="st1" d="M17.9,41.5c8.8,0.2,15.2,2.5,21.5,5.5s14.1,6.9,22.9,5.3c-9,0.9-15.3-2.4-21.8-5.7
										c-2.9-1.4-5.8-2.6-8.8-3.7c-3-1-6.4-2.2-9.7-2.2C20.6,40.7,19.2,41,17.9,41.5"/>
									<g>
										<defs>
											<path id="SVGID_13_" d="M17.9,41.5c8.8,0.2,15.2,2.5,21.5,5.5s14.1,6.9,22.9,5.3c-9,0.9-15.3-2.4-21.8-5.7
												c-2.9-1.4-5.8-2.6-8.8-3.7c-3-1-6.4-2.2-9.7-2.2C20.6,40.7,19.2,41,17.9,41.5"/>
										</defs>
										<use xlink:href="#SVGID_13_"  style="overflow:visible;fill:#FFFFFF;"/>
										<clipPath id="SVGID_14_">
											<use xlink:href="#SVGID_13_"  style="overflow:visible;"/>
										</clipPath>
										<g class="st9">
											<rect x="18" y="40.8" class="st1" width="44.4" height="13.1"/>
										</g>
									</g>
								</g>
								<g class="st10">
									<g>
										<defs>
											<rect id="SVGID_15_" x="6.6" y="43.8" width="69.8" height="13.1"/>
										</defs>
										<use xlink:href="#SVGID_15_"  style="overflow:visible;fill:#FFFFFF;"/>
										<clipPath id="SVGID_16_">
											<use xlink:href="#SVGID_15_"  style="overflow:visible;"/>
										</clipPath>
										<g class="st11">
											<path class="st1" d="M14.2,44c-2.8,0.3-5.4,1.4-7.6,3c9-2.9,19.1-1.4,26.9,1.5c4.3,1.6,8.3,4,12.6,5.7
												c7.2,2.8,15.8,2.7,23.3,1.2c2.4-0.4,4.7-1.1,7-2c-11.1,3.5-23,3.6-32.2-0.8c-4.3-2.1-8.7-4.5-13.3-6.2
												c-4.3-1.6-8.9-2.4-13.4-2.5C16.4,43.8,15.3,43.9,14.2,44"/>
											<g>
												<defs>
													<path id="SVGID_17_" d="M14.2,44c-2.8,0.3-5.4,1.4-7.6,3c9-2.9,19.1-1.4,26.9,1.5c4.3,1.6,8.3,4,12.6,5.7
														c7.2,2.8,15.8,2.7,23.3,1.2c2.4-0.4,4.7-1.1,7-2c-11.1,3.5-23,3.6-32.2-0.8c-4.3-2.1-8.7-4.5-13.3-6.2
														c-4.3-1.6-8.9-2.4-13.4-2.5C16.4,43.8,15.3,43.9,14.2,44"/>
												</defs>
												<use xlink:href="#SVGID_17_"  style="overflow:visible;fill:#FFFFFF;"/>
												<clipPath id="SVGID_18_">
													<use xlink:href="#SVGID_17_"  style="overflow:visible;"/>
												</clipPath>
												<g class="st12">
													<rect x="6.6" y="43.8" class="st1" width="69.8" height="13.1"/>
												</g>
											</g>
										</g>
										<g class="st13">
											<g>
												<defs>
													<rect id="SVGID_19_" x="11.8" y="42" width="56.3" height="13.9"/>
												</defs>
												<defs>
													<path id="SVGID_20_" d="M11.5,46.3c-1.8,0.1-3.5,0.5-5.2,1C4,48.2,2.1,50.1,0,51.5c8.7-3.9,20.1-5,29.5-2
														c4.3,1.4,8.6,3.2,12.7,5.2c4.3,2,8.6,3.7,13.8,4c5.5,0.3,11.1-0.4,16.4-1.8c4.4-1.1,8.7-2.2,12.7-3.3
														c0.5-0.1,1.2-0.1,1.5-0.7c-6.6,1.4-13.2,3.7-20,4.7c-7.1,1.1-14.4,0.2-21.1-2.5c-8.8-3.8-17-9-28.6-9
														C15.1,46,13.3,46.1,11.5,46.3"/>
												</defs>
												<use xlink:href="#SVGID_19_"  style="overflow:visible;fill:#FFFFFF;"/>
												<use xlink:href="#SVGID_20_"  style="overflow:visible;fill:#FFFFFF;"/>
												<clipPath id="SVGID_21_">
													<use xlink:href="#SVGID_19_"  style="overflow:visible;"/>
												</clipPath>
												<clipPath id="SVGID_22_" class="st14">
													<use xlink:href="#SVGID_20_"  style="overflow:visible;"/>
												</clipPath>
												<g class="st15">
													<path class="st1" d="M11.8,43.8C23,42,31.7,45.4,39.6,49c3.8,1.8,7.8,3.7,12.4,4.7c5,1,10.2,1,15.3,0
														c0.2-0.2,0.8-0.3,0-0.3c-11.1,2.5-21.4-1.4-28.6-5.8c-2.9-1.1-6.3-2.8-10-3.8c-3.2-1-6.6-1.5-10-1.6
														C16.3,41.9,13.9,42.5,11.8,43.8"/>
													<g>
														<defs>
															<path id="SVGID_23_" d="M11.8,43.8C23,42,31.7,45.4,39.6,49c3.8,1.8,7.8,3.7,12.4,4.7c5,1,10.2,1,15.3,0
																c0.2-0.2,0.8-0.3,0-0.3c-11.1,2.5-21.4-1.4-28.6-5.8c-2.9-1.1-6.3-2.8-10-3.8c-3.2-1-6.6-1.5-10-1.6
																C16.3,41.9,13.9,42.5,11.8,43.8"/>
														</defs>
														<use xlink:href="#SVGID_23_"  style="overflow:visible;fill:#FFFFFF;"/>
														<clipPath id="SVGID_24_">
															<use xlink:href="#SVGID_23_"  style="overflow:visible;"/>
														</clipPath>
														<g class="st16">
															<rect x="11.8" y="42" class="st1" width="56.3" height="13.9"/>
														</g>
													</g>
												</g>
												<path class="st17" d="M11.5,46.3c-1.8,0.1-3.5,0.5-5.2,1C4,48.2,2.1,50.1,0,51.5c8.7-3.9,20.1-5,29.5-2
													c4.3,1.4,8.6,3.2,12.7,5.2c4.3,2,8.6,3.7,13.8,4c5.5,0.3,11.1-0.4,16.4-1.8c4.4-1.1,8.7-2.2,12.7-3.3
													c0.5-0.1,1.2-0.1,1.5-0.7c-6.6,1.4-13.2,3.7-20,4.7c-7.1,1.1-14.4,0.2-21.1-2.5c-8.8-3.8-17-9-28.6-9
													C15.1,46,13.3,46.1,11.5,46.3"/>
												<g class="st18">
													<rect y="46" class="st1" width="86.6" height="13"/>
												</g>
											</g>
										</g>
									</g>
								</g>
							</g>
						</g>
					</g>
				</g>
			</g>
		</g>
	</g>
</g>
</svg>
