<svg id="Layer_1" data-name="Layer 1" xmlns="http://www.w3.org/2000/svg" xmlns:xlink="http://www.w3.org/1999/xlink" viewBox="0 0 87.05 59"><defs><style>.cls-1{fill:none;}.cls-2{clip-path:url(#clip-path);}.cls-3{fill:#640c36;}.cls-4{opacity:0.2;}.cls-5{clip-path:url(#clip-path-2);}.cls-6{clip-path:url(#clip-path-3);}.cls-7{opacity:0.4;}.cls-8{clip-path:url(#clip-path-4);}.cls-9{clip-path:url(#clip-path-5);}.cls-10{opacity:0.6;}.cls-11{clip-path:url(#clip-path-6);}.cls-12{clip-path:url(#clip-path-7);}.cls-13{opacity:0.9;}.cls-14{clip-path:url(#clip-path-8);}.cls-15{clip-path:url(#clip-path-9);}.cls-16{opacity:0.8;}.cls-17{clip-path:url(#clip-path-10);}.cls-18{clip-path:url(#clip-path-11);}.cls-19{clip-path:url(#clip-path-12);}</style><clipPath id="clip-path" transform="translate(0.9 -1.36)"><rect class="cls-1" x="-113.38" y="-9.55" width="593.22" height="799.18"/></clipPath><clipPath id="clip-path-2" transform="translate(0.9 -1.36)"><rect class="cls-1" x="27.1" y="41.09" width="27.78" height="9.76"/></clipPath><clipPath id="clip-path-3" transform="translate(0.9 -1.36)"><path class="cls-1" d="M27.81,41.37a96.41,96.41,0,0,1,13.46,5c4.17,2,8.45,4.45,13.61,4.49-7.06-1.06-12.66-4.57-18.55-7.15-2.05-.9-4.18-2.12-6.13-2.49a15.71,15.71,0,0,0-1.92-.11c-.71,0-1.18.07-.47.28"/></clipPath><clipPath id="clip-path-4" transform="translate(0.9 -1.36)"><rect class="cls-1" x="22.28" y="41.16" width="34.84" height="11.36"/></clipPath><clipPath id="clip-path-5" transform="translate(0.9 -1.36)"><path class="cls-1" d="M24.52,41.2c-.59.14-1.85,0-2.24.5,6.8.67,12.18,3.06,17.5,5.49s10.64,5.34,17.35,5c-6.66-.19-11.21-2.72-16-5a54.14,54.14,0,0,0-7.78-3.49c-2.71-1.06-5.7-2.47-8.67-2.49h-.15Z"/></clipPath><clipPath id="clip-path-6" transform="translate(0.9 -1.36)"><rect class="cls-1" x="17.04" y="42.13" width="44.42" height="13.09"/></clipPath><clipPath id="clip-path-7" transform="translate(0.9 -1.36)"><path class="cls-1" d="M17,42.86c8.8.15,15.15,2.51,21.53,5.49s14.14,6.87,22.88,5.32c-9,.9-15.32-2.44-21.83-5.66a79.35,79.35,0,0,0-8.82-3.66c-3-1-6.44-2.23-9.72-2.23a10.62,10.62,0,0,0-4,.73"/></clipPath><clipPath id="clip-path-8" transform="translate(0.9 -1.36)"><rect class="cls-1" x="5.68" y="45.15" width="69.84" height="13.14"/></clipPath><clipPath id="clip-path-9" transform="translate(0.9 -1.36)"><path class="cls-1" d="M13.31,45.36a16.5,16.5,0,0,0-7.63,3c9-2.92,19.14-1.38,26.92,1.5,4.33,1.61,8.3,4,12.56,5.66,7.19,2.78,15.79,2.68,23.33,1.16a34.18,34.18,0,0,0,7-2c-11.1,3.49-23,3.59-32.15-.83-4.31-2.07-8.67-4.53-13.31-6.16a42.26,42.26,0,0,0-13.44-2.54,24.72,24.72,0,0,0-3.31.21"/></clipPath><clipPath id="clip-path-10" transform="translate(0.9 -1.36)"><rect class="cls-1" x="10.91" y="43.34" width="56.28" height="13.85"/></clipPath><clipPath id="clip-path-11" transform="translate(0.9 -1.36)"><path class="cls-1" d="M10.91,45.19c11.22-1.85,19.85,1.54,27.81,5.15C42.57,52.09,46.54,54,51.14,55A37.79,37.79,0,0,0,66.4,55c.18-.24.79-.31,0-.33C55.28,57.19,45,53.28,37.83,48.85c-2.94-1.1-6.33-2.76-10-3.83a37.65,37.65,0,0,0-9.95-1.6,11.93,11.93,0,0,0-7,1.77"/></clipPath><clipPath id="clip-path-12" transform="translate(0.9 -1.36)"><path class="cls-1" d="M10.61,47.69a25.41,25.41,0,0,0-5.23,1c-2.28.86-4.13,2.79-6.28,4.16,8.69-3.9,20.09-5,29.46-2A109.3,109.3,0,0,1,41.27,56c4.27,2,8.58,3.67,13.76,4a53.22,53.22,0,0,0,16.45-1.83c4.36-1.09,8.73-2.19,12.71-3.33.46-.13,1.2-.12,1.5-.66-6.63,1.43-13.18,3.7-20,4.66a40.26,40.26,0,0,1-21.09-2.49c-8.84-3.78-17-9-28.59-9a40.48,40.48,0,0,0-5.36.36"/></clipPath></defs><title>flogo</title><g class="cls-2"><path class="cls-3" d="M68.15,58.62a19,19,0,0,1-13.73-5.68c-.17-.17-.56-.3-.33-.69,0,0-.09-.12-.14-.18A17.93,17.93,0,0,1,50,38a2.5,2.5,0,0,0-.1-.62.8.8,0,0,1,0-.28,19.65,19.65,0,0,1,3.55-7.66,15.64,15.64,0,0,1,1.44-1.34,17.85,17.85,0,0,1,4.91-3.56c.89-.43,1.78-.88,2.7-1.22A10,10,0,0,1,64.14,23a12.52,12.52,0,0,1,1.77-.38,19.21,19.21,0,0,1,11,2.56A23.89,23.89,0,0,1,80.47,28,16.19,16.19,0,0,1,85.14,36a17,17,0,0,1,.52,5.34,19.25,19.25,0,0,1-3.06,9.32C80,54.9,76,57.08,71.3,58.2a25.93,25.93,0,0,1-3.15.42m2.51-19.14h0l-.21-.42-.42,0c-.2-.56-.29-.63-.8-.43a2.25,2.25,0,0,1-1.43.27.31.31,0,0,0-.24,0c-.43.32-.75.07-1-.22a9.77,9.77,0,0,1-.68-.92,3.32,3.32,0,0,0-.4-.5A1.22,1.22,0,0,1,65.25,36a1.22,1.22,0,0,0,.1-.79,1,1,0,0,1,.15-1c.36-.45.76-.87,1.14-1.31a.84.84,0,0,0,.23-.36,1,1,0,0,1,.56-.83,1.34,1.34,0,0,0,.27-.27c-.08-.08-.15-.19-.22-.2-.46,0-.37-.31-.32-.6a4.36,4.36,0,0,0,.09-.72c0-.31.19-.4.45-.39a3.08,3.08,0,0,1,.43.11c.28.06.5,0,.51-.34,0-.11-.17-.23-.26-.35l-.23-.26a1.62,1.62,0,0,1,.29-.23,3.47,3.47,0,0,1,.47-.15c-.9,0-.9,0-.78-.4l-.43.15c-.3.11-.43,0-.4-.3a.63.63,0,0,1,.62-.67c.07,0,.13-.15.21-.22s.25-.27.33-.25.21.2.3.32.08.16.14.23l.61.75.7-.5.06-.56c-.43-.09-.52-.16-.5-.65,0-.17.18-.35.33-.48s.48-.27.66-.46a1.71,1.71,0,0,1,2.46-.16,2.59,2.59,0,0,0,.72.41c.35.14.72.22,1.09.32s.54.09.8.13.63.18.75.07c.28-.26.45-.12.6.06.3.37.65.16,1,.15a17.1,17.1,0,0,0-10-3.39,2.63,2.63,0,0,0-.86.26s-.06.11-.1.16l-.68.92c.12.1.12.28-.15.41a3.71,3.71,0,0,1-.71.33,5.58,5.58,0,0,0-1.2.48A4.13,4.13,0,0,0,63,26.64c-.07.08-.24.19-.31.15-.22-.11-.59-.27-.6-.43a1.7,1.7,0,0,1,.29-1,1.13,1.13,0,0,0,.25-1l-1.17-.08-1,.78.81.91-.76.4a2.23,2.23,0,0,0-.29.49A9.29,9.29,0,0,0,60,28s.11.12.17.13c.34.08.22.27.12.45s-.17.3-.22.38c.14.14.3.24.28.3s-.12.35-.22.38a8.21,8.21,0,0,1-1,.16l0-.12.34-.48c-.45.12-.84.26-1,.76h.45c-.08.29-.23.41-1.09.91l-.28-.24-1.21,1.09a4,4,0,0,0-.83.79,2,2,0,0,1-.82.84,1.13,1.13,0,0,0-.73,1.1h.44c-.12.48.52.87.08,1.31a6.32,6.32,0,0,0,.82.17c.27,0,.56-.06.83,0a.85.85,0,0,1,.58.27,2.15,2.15,0,0,1,.11.77,2.59,2.59,0,0,1,.25.24s-.07.15-.1.15a2.12,2.12,0,0,1-.36-.09l-.08.79a1,1,0,0,0,.94.62.8.8,0,0,1,.77.54c.18.35.33.71.49,1.07l.09-.09c.17,0,.42,0,.5.11.25.33.6.28.93.37s.45.1.66.18c.74.27,1,1,.37,1.53a1.09,1.09,0,0,0-.43,1,3.42,3.42,0,0,1-.27,1.93.54.54,0,0,1-.5.36,1.05,1.05,0,0,0-.71.46,3.83,3.83,0,0,0-.12,1c-.06.42-.59.91-.93.89.21.5.21.5-.31.84a.21.21,0,0,0-.07.13c-.07.45-.32.92.09,1.35a.34.34,0,0,1,.06.29.64.64,0,0,0,.33.78c.28.2.54.43.81.65l-.07.14A3.8,3.8,0,0,1,58.2,52a2.76,2.76,0,0,1-.74-.68c-.43-.52-1.05-.93-1.07-1.72,0,0,0-.07-.07-.1a10.94,10.94,0,0,1-.71-1.33,16.25,16.25,0,0,1-.49-1.79,3.29,3.29,0,0,1-.2-1.06,1.6,1.6,0,0,0-.87-1.6,1.4,1.4,0,0,1-.44-.34c-.5-.82-1.27-1.52-1.13-2.61a.06.06,0,0,0,0,0c-.22-.28,0-.47.13-.67.33-.47.65-.95.34-1.51-.11.05-.26.19-.35.16a1.24,1.24,0,0,1-.89-.68c-.18-.45-.7-.48-1.06-.71,0,0-.26.19-.36.32a.71.71,0,0,0-.07.31,18.14,18.14,0,0,0,0,5,17.43,17.43,0,0,0,4.33,9.38,3.74,3.74,0,0,0,1,.76c.61.34,1.26.62,1.83.89.1,0,.23-.1.29-.06a7.43,7.43,0,0,0,.81.51c.58.23,1.18.39,1.73.57a2.81,2.81,0,0,1,0-.71c.05-.19.33-.26.32-.51h.23c.08,0,.17,0,.23,0,.29-.16.34.06.41.19l-.42.42c.31.31.59.55.82.84a3.5,3.5,0,0,1,.33.61l-.65.22-.18.1c.14.08.28.19.31.16.41-.31.48,0,.5.26.26,0,.53-.14.71-.05s.27.35.41.55c.33-.26.51-.7.95-.46.17.1.27.31.41.48l-.09.1h1.16s0,0,0-.07l-.56-.1,0-.15a2.59,2.59,0,0,1,.53-.25,4.3,4.3,0,0,1,.76-.07.75.75,0,0,0,.62-.34.88.88,0,0,1,.82-.45,3,3,0,0,0,.72-.07c.21,0,.42,0,.62,0a12.43,12.43,0,0,1,2.1-.3,2.62,2.62,0,0,0,1.78-.55c.06,0,.21-.07.24,0,.22.26.37,0,.55-.06s.38-.2.56-.3c.34-.19.68-.4,1-.58.18-.09.45-.25.55-.18.41.26.74,0,1.1-.09.12,0,.25,0,.38,0a.73.73,0,0,0,.29,0l2.54-1.43a10.44,10.44,0,0,0,1-.6,4.63,4.63,0,0,0,1.16-1,17.43,17.43,0,0,0,3-12c-.06-.62-.19-1.23-.29-1.83-.71.32-.73.89-.6,1.49.33.06.41.33.41.64a.32.32,0,0,1-.2.23c-.41.05-.24-.36-.39-.53-.33.17-.54,0-.67-.27-.35-.74-.7-1.48-1-2.22a2,2,0,0,1-.64-.42c-.22-.2-.39-.5-.64-.59a6.72,6.72,0,0,0-1.27-.2c.16.15.45.3.48.48s-.19.43-.3.64a.48.48,0,0,0,0,.11.5.5,0,0,1-.51.41,1.47,1.47,0,0,0-.59.23c-.38.22-.74.47-1.14.72,0,0,0,.1.07.1.42-.06.85-.14,1.4-.24a9.77,9.77,0,0,1-.16,1A3,3,0,0,1,78.1,40a2.11,2.11,0,0,0-.72,2.81l0,0,0-.09c.21.09.42.17.62.28,0,0,0,.14,0,.21l-.62-.08a1.73,1.73,0,0,1-.93,1.31c-.2.14-.46.48-.41.64.15.47-.08.71-.35,1a1.47,1.47,0,0,0-.24.38,2.65,2.65,0,0,1-.23.52c-.26.31-.57.57-.84.87a1.17,1.17,0,0,1-1.08.49c-.11,0-.23.07-.35.08s-.42,0-.5,0-.1-.36-.13-.54a2.33,2.33,0,0,0-.1-.54,7.48,7.48,0,0,1-.4-.65A10.65,10.65,0,0,1,71.43,45a3.07,3.07,0,0,1,0-1.46,2.42,2.42,0,0,0,0-1.66,2.9,2.9,0,0,0-.43-1,1.05,1.05,0,0,1-.19-1,2,2,0,0,0,.1-.35s-.13-.08-.21-.11M56.39,36.75a1.81,1.81,0,0,0-1.61-.31c-.27.06-.72.3-.86-.26,0,0-.15,0-.24,0l.33.39h-.7l.17-.74-.94.13c.41-.77,1-.52,1.6-.32v-.54c-.13.64-.46.09-.62.07-.46-.08-.16-.47-.19-.72a.69.69,0,0,0-.75.18,1.12,1.12,0,0,1-.41.09,1.73,1.73,0,0,0-.42.08,2.33,2.33,0,0,0-1.08,1.35.48.48,0,0,0,.09.45c.11.06.32,0,.47-.07s.15-.18.25-.26a3.52,3.52,0,0,1,.53-.34.28.28,0,0,1,.25,0s0,.16,0,.22c-.11.24-.23.48-.35.73.66.11.66.11.52.75,0,.08,0,.16-.06.24,0,.27,0,.43.35.31a1.85,1.85,0,0,1,.5,0c.07,0,.17,0,.22,0a7.41,7.41,0,0,0,.65-.56c.26-.26.54-.12.81,0s.55.22.84.29a.38.38,0,0,0,.31-.18,9.09,9.09,0,0,0,.32-.88m16.83-5.07h-.17c-.19-.25-.37-.51-.58-.74-.06-.06-.27-.09-.3,0-.15.21-.26.45-.4.66a1.22,1.22,0,0,1-.24.22l-.17-.23a1.28,1.28,0,0,1-.15-.21c0-.09-.1-.21-.07-.28s.16-.11.25-.13a1,1,0,0,1,.25,0l.05-.11-.88-.65a2.66,2.66,0,0,1,0,.51c0,.1-.1.24-.18.25a.34.34,0,0,1-.28-.15.87.87,0,0,1,0-.41,2.08,2.08,0,0,1,.08-.37h-.67l-.21.38.34.14c-.08.09-.13.23-.23.28a3.61,3.61,0,0,1-.57.18l0,0-.94.5a1.56,1.56,0,0,0,.5-.06,2.19,2.19,0,0,1,1.32-.24,1.94,1.94,0,0,0,.56,0c.34-.05.55.07.54.41s.18.48.48.58a2,2,0,0,1,.5.29c.19.13.36.28.59.46.09-.71.28-.85.72-.56a5.2,5.2,0,0,0,1.95.51l.14-.69-.41.19c-.05-.05-.12-.1-.13-.15-.06-.33-.25-.42-.54-.31a2.15,2.15,0,0,1-.4.17,2.69,2.69,0,0,1-.65,0s-.1-.16-.08-.23a.29.29,0,0,1,.2-.15,2.49,2.49,0,0,1,.46,0l-.39-.91-.1,0-.17.94M56.1,28.87,57,29l.09.1,1.34-1.74a4.18,4.18,0,0,0-2.32,1.46m18.09.81a.25.25,0,0,0-.06.1c0,.2-.15.43-.08.58s.38.18.63.14a1.38,1.38,0,0,1,.63.13c.21.07.41.18.61.27l.07-.12-.9-.88s-.19.26-.22.25a6.45,6.45,0,0,1-.69-.47m-16.6-3,.07,0a1.51,1.51,0,0,0,.07-.17c0-.09,0-.23.07-.27a5.9,5.9,0,0,1,.71-.44c.21-.11.56-.14.62-.29.15-.38.44-.45.78-.57a.4.4,0,0,0-.35-.06q-1.07.63-2.13,1.3c-.25.16-.47.35-.7.53l0,.07.87-.47,0,.34M77.54,37l.11-.07c-.16-.28-.32-.57-.49-.85s-.46-.72-.68-1.09l-.62-1-.11.07a4,4,0,0,1,.6,1.06A4.24,4.24,0,0,0,77.54,37m-6.28-9.49h.65c.06,0,.15-.05.16-.09,0-.26.15-.62,0-.76a.93.93,0,0,1-.18-.87l-.27.4c.08.25.2.44.15.54a6.22,6.22,0,0,1-.54.79m7.1,4.64c-.28-.4-.29-1-.77-1.25-.22-.14-.38-.39.07-.68-.23,0-.4,0-.43,0a.57.57,0,0,0-.06.4c0,.13.18.22.26.34s.25.28.23.39c-.09.56.37.59.69.77m-18.45-5c-.36,0-.58-.39-.91-.16,0,0-.07,0-.1-.05s-.19-.1-.21-.08a.88.88,0,0,0-.11.25c.36.12.84-.38,1,.31l.35-.27m-.71-.55.77-.51c-.24-.24-.42-.14-.77.51" transform="translate(0.9 -1.36)"/><path class="cls-3" d="M79.38,44.86l-.3-.53-.31.34a2.86,2.86,0,0,1-.61.6c-.38.2-.57.42-.44.85,0,.07,0,.16-.07.24-.12.32-.26.63-.35,1s-.13.58.19.61a.94.94,0,0,0,.78-.31c.42-.9.75-1.84,1.11-2.77M65.47,26.21c.3-.14.55-.23.79-.36a.33.33,0,0,0,.16-.26.34.34,0,0,0-.24-.21,1.63,1.63,0,0,0-.72,0,2.42,2.42,0,0,0-.57.45l.58.35M62.8,37.59c.61.06.64,0,.41-.54a1.92,1.92,0,0,0-.46-.2,1.54,1.54,0,0,0-.43.07,3.09,3.09,0,0,1,.23.26c.08.12.15.25.24.41m21.14,3-.23-.35a1.24,1.24,0,0,0-.28.33c0,.06.13.18.2.27l.31-.25M80.8,42.84c-.13-.11-.22-.25-.27-.24s-.17.14-.26.22c.08.08.14.21.24.24s.16-.11.29-.22" transform="translate(0.9 -1.36)"/><path class="cls-3" d="M79.38,44.86c-.36.93-.69,1.87-1.11,2.77a.94.94,0,0,1-.78.3c-.32,0-.25-.38-.19-.61s.23-.63.35-1c0-.08.09-.17.07-.24-.13-.43.06-.66.44-.85a2.89,2.89,0,0,0,.61-.6l.31-.34.3.52" transform="translate(0.9 -1.36)"/><path class="cls-3" d="M65.47,26.21l-.58-.35a2.38,2.38,0,0,1,.57-.45,1.63,1.63,0,0,1,.72,0,.34.34,0,0,1,.24.21.33.33,0,0,1-.16.26c-.24.13-.49.23-.79.36" transform="translate(0.9 -1.36)"/><path class="cls-3" d="M62.8,37.59c-.1-.17-.16-.3-.25-.41a2.79,2.79,0,0,0-.23-.26,1.51,1.51,0,0,1,.43-.07,1.89,1.89,0,0,1,.46.2c.23.54.2.6-.41.54" transform="translate(0.9 -1.36)"/><path class="cls-3" d="M70.07,40.84a2.11,2.11,0,0,1-.06.53c0,.07-.2.09-.3.14s-.11-.24-.07-.28a3.15,3.15,0,0,1,.44-.37Z" transform="translate(0.9 -1.36)"/><path class="cls-3" d="M83.94,40.61l-.31.25c-.07-.09-.22-.21-.2-.27a1.24,1.24,0,0,1,.27-.33l.23.35" transform="translate(0.9 -1.36)"/><path class="cls-3" d="M80.8,42.84c-.14.11-.24.24-.29.22s-.16-.16-.24-.24c.09-.08.16-.19.26-.22s.15.12.27.24" transform="translate(0.9 -1.36)"/><path class="cls-3" d="M2.17,17.24c1.31,1.69,3.9,1.42,3.9,1.42V11.4h4.1A3,3,0,0,0,12.4,8.66H6.07L6,5h5.82a2.9,2.9,0,0,0,1.42-2.64H2.17" transform="translate(0.9 -1.36)"/><path class="cls-3" d="M37.83,9.55a5,5,0,0,0-4.48-3.07c-.55-.12-2.94.37-4.17.35A7.64,7.64,0,0,1,27,6.46l0,10.83a4.14,4.14,0,0,0,3.6,1.33l0-9.23s3.18-.53,3.42.76l-.06,7.09a5.52,5.52,0,0,0,3.91,1.42" transform="translate(0.9 -1.36)"/><path class="cls-3" d="M47.19,9.38s-2.74-.29-3.51.85-.35,3.28-.28,4.38,1.82,1.32,1.82,1.32c2.33.66,4-1.74,4-1.74s.93,1.92.32,2.71A6.17,6.17,0,0,1,44,18.74,5.56,5.56,0,0,1,40,15.93s-.55-4.8,0-6.49,2.21-2.94,5.31-2.93" transform="translate(0.9 -1.36)"/><path class="cls-3" d="M42.63,7.06c.49-.62,3.1-.7,4.39-.33A4.36,4.36,0,0,1,49.64,8.9c.26.93-.76,2.84-.76,2.84-.57-1.8-3-2.31-3-2.31s-2.44-.28-2.51,1.15" transform="translate(0.9 -1.36)"/><path class="cls-3" d="M68.81,18.93s-2.91-.56-3.74-1.73V6.48a12,12,0,0,0,3.31.35,13.81,13.81,0,0,1,2.71-.4,2.9,2.9,0,0,1,2.86,2.08s-.25,2.42-1.57,2.82a1.86,1.86,0,0,0-1.21-1.8,3.49,3.49,0,0,0-2.48-.1Z" transform="translate(0.9 -1.36)"/><path class="cls-3" d="M77.74,7.25c2.47-1.67,4.75.54,4.75.54V1.36s3.25-.13,3.67,1.85V19s-.48-.67-2.61-.57a12.75,12.75,0,0,1-2.72.81c-1,.1-4.38-1.16-5.42-3.26V9.88s-.09-1,2.34-2.63m1,7.41a3.39,3.39,0,0,0,1.89,1.2c1.05.13,1.34-.34,1.34-.34V10.34a2.18,2.18,0,0,0-1.61-1c-1,0-1.61,1.17-1.61,1.17Z" transform="translate(0.9 -1.36)"/><path class="cls-3" d="M16.89,9.83s.22-1,2-1,2.1,1,2.1,1h3.69s-.32-3.55-5.75-3.55c0,0-4.46-.26-5.75,3v6.09h3.69" transform="translate(0.9 -1.36)"/><path class="cls-3" d="M20.91,15.31s-.22,1-2,1-2.1-1-2.1-1H13.14s.32,3.55,5.75,3.55c0,0,4.46.26,5.75-3V9.78H21" transform="translate(0.9 -1.36)"/><path class="cls-3" d="M55.08,9.94s.22-1,2-1,2.1,1,2.1,1h3.69s-.32-3.55-5.75-3.55c0,0-4.46-.26-5.75,3v6.09H55" transform="translate(0.9 -1.36)"/><path class="cls-3" d="M59.1,15.41s-.22,1-2,1-2.1-1-2.1-1H51.34S51.66,19,57.09,19c0,0,4.46.26,5.75-3V9.88H59.15" transform="translate(0.9 -1.36)"/><path class="cls-3" d="M35,29.1a2,2,0,0,1-2.45-.28v3.33s-1.68.07-1.89-1V23s.25.35,1.35.3a6.64,6.64,0,0,1,1.41-.42,3.81,3.81,0,0,1,2.8,1.69v3.15s0,.51-1.21,1.36m-.51-3.83a1.75,1.75,0,0,0-1-.62c-.54-.07-.69.18-.69.18v2.67a1.13,1.13,0,0,0,.83.51c.5,0,.83-.61.83-.61Z" transform="translate(0.9 -1.36)"/><path class="cls-3" d="M23.66,27.81A2.57,2.57,0,0,0,26,29.4c.29.06,1.52-.19,2.15-.18a3.92,3.92,0,0,1,1.14.19l0-5.6a2.14,2.14,0,0,0-1.86-.68l0,4.77s-1.65.28-1.77-.39l0-3.67a2.85,2.85,0,0,0-2-.74" transform="translate(0.9 -1.36)"/><path class="cls-3" d="M12.53,29.47s-1.51-.29-1.93-.89V23a6.2,6.2,0,0,0,1.71.18,7.13,7.13,0,0,1,1.4-.21,1.5,1.5,0,0,1,1.48,1.08s-.13,1.25-.81,1.46a1,1,0,0,0-.63-.93,1.8,1.8,0,0,0-1.28-.05Z" transform="translate(0.9 -1.36)"/><path class="cls-3" d="M4.44,23.2s.13-.71,1.21-.72,1.29.7,1.29.7H9.21S9,20.65,5.68,20.66c0,0-2.74-.18-3.53,2.15v4.53l2.19.27a5.21,5.21,0,0,0,0-1Z" transform="translate(0.9 -1.36)"/><path class="cls-3" d="M4.44,27.09s.13.71,1.21.72,1.29-.7,1.29-.7H9.21S9,29.64,5.68,29.63c0,0-2.74.18-3.53-2.15V23l2.29-.32a7.27,7.27,0,0,1,0,1.05Z" transform="translate(0.9 -1.36)"/><path class="cls-3" d="M9.21,27.11a2,2,0,0,1-1.37.54,7.37,7.37,0,0,0,0-.89l0-1.19H5.73a.94.94,0,0,1-.52-.85h4" transform="translate(0.9 -1.36)"/><rect class="cls-3" x="7.84" y="24.2" width="2.27" height="1.56"/><path class="cls-3" d="M18.34,24.76s.11-.52,1-.52,1.08.51,1.08.51h1.91s-.17-1.84-3-1.83c0,0-2.31-.13-3,1.56v3.15h1.91" transform="translate(0.9 -1.36)"/><path class="cls-3" d="M20.42,27.59s-.11.52-1,.53-1.08-.51-1.08-.51h-1.9s.16,1.84,3,1.83c0,0,2.31.13,3-1.56V24.73h-1.9" transform="translate(0.9 -1.36)"/><g class="cls-4"><g class="cls-5"><path class="cls-3" d="M27.81,41.37a96.61,96.61,0,0,1,13.46,5c4.17,2,8.45,4.45,13.61,4.49-7.06-1.06-12.66-4.57-18.55-7.15-2.05-.9-4.18-2.12-6.13-2.49a15.91,15.91,0,0,0-1.92-.11c-.71,0-1.18.07-.47.28" transform="translate(0.9 -1.36)"/><g class="cls-6"><rect class="cls-3" x="28" y="39.73" width="27.78" height="9.76"/></g></g></g><g class="cls-7"><g class="cls-8"><path class="cls-3" d="M24.52,41.2c-.59.14-1.85,0-2.24.5,6.8.67,12.18,3.06,17.5,5.49s10.64,5.34,17.35,5c-6.66-.19-11.21-2.72-16-5a54.14,54.14,0,0,0-7.78-3.49c-2.71-1.06-5.7-2.47-8.68-2.49h-.15Z" transform="translate(0.9 -1.36)"/><g class="cls-9"><rect class="cls-3" x="23.18" y="39.81" width="34.85" height="11.36"/></g></g></g><g class="cls-10"><g class="cls-11"><path class="cls-3" d="M17,42.86c8.8.15,15.15,2.51,21.53,5.49s14.14,6.87,22.88,5.32c-9,.9-15.32-2.44-21.83-5.66a79.47,79.47,0,0,0-8.82-3.66c-3-1-6.44-2.23-9.72-2.23a10.63,10.63,0,0,0-4,.73" transform="translate(0.9 -1.36)"/><g class="cls-12"><rect class="cls-3" x="17.95" y="40.77" width="44.42" height="13.09"/></g></g></g><g class="cls-13"><g class="cls-14"><path class="cls-3" d="M13.31,45.36a16.51,16.51,0,0,0-7.63,3c9-2.92,19.14-1.38,26.92,1.5,4.33,1.61,8.3,4,12.56,5.66,7.19,2.78,15.79,2.69,23.33,1.16a34.19,34.19,0,0,0,7-2c-11.1,3.49-23,3.59-32.15-.83-4.31-2.07-8.67-4.53-13.31-6.16a42.27,42.27,0,0,0-13.44-2.54,24.89,24.89,0,0,0-3.31.21" transform="translate(0.9 -1.36)"/><g class="cls-15"><rect class="cls-3" x="6.58" y="43.79" width="69.84" height="13.14"/></g></g></g><g class="cls-16"><g class="cls-17"><path class="cls-3" d="M10.91,45.19c11.22-1.85,19.85,1.54,27.81,5.15C42.57,52.09,46.54,54,51.14,55A37.83,37.83,0,0,0,66.4,55c.18-.24.79-.31,0-.33C55.28,57.19,45,53.28,37.83,48.85c-2.94-1.1-6.33-2.76-10-3.83a37.64,37.64,0,0,0-9.95-1.6,11.92,11.92,0,0,0-7,1.77" transform="translate(0.9 -1.36)"/><g class="cls-18"><rect class="cls-3" x="11.81" y="41.98" width="56.28" height="13.85"/></g></g></g><path class="cls-3" d="M10.61,47.69a25.33,25.33,0,0,0-5.23,1c-2.28.86-4.13,2.79-6.28,4.16,8.69-3.9,20.09-5,29.46-2A109.65,109.65,0,0,1,41.27,56c4.27,2,8.58,3.67,13.76,4a53.23,53.23,0,0,0,16.45-1.83c4.36-1.09,8.73-2.19,12.71-3.33.46-.13,1.2-.12,1.5-.66-6.63,1.43-13.18,3.7-20,4.66a40.25,40.25,0,0,1-21.08-2.49c-8.84-3.78-17-9-28.59-9a40.48,40.48,0,0,0-5.36.36" transform="translate(0.9 -1.36)"/><g class="cls-19"><rect class="cls-3" y="45.96" width="86.59" height="13.04"/></g></g></svg>